<?xml version="1.0" encoding="UTF-8"?>
<!DOCTYPE svg PUBLIC "-//W3C//DTD SVG 1.1//EN" "http://www.w3.org/Graphics/SVG/1.1/DTD/svg11.dtd">
<!-- Creator: CorelDRAW X7 -->
<svg xmlns="http://www.w3.org/2000/svg" xml:space="preserve" width="80.451mm" height="71.1735mm" version="1.1" style="shape-rendering:geometricPrecision; text-rendering:geometricPrecision; image-rendering:optimizeQuality; fill-rule:evenodd; clip-rule:evenodd"
viewBox="0 0 2330 2061"
 xmlns:xlink="http://www.w3.org/1999/xlink">
 <defs>
  <style type="text/css">
   <![CDATA[
    .fil0 {fill:#373435;fill-rule:nonzero}
    .fil2 {fill:#FDBE2D;fill-rule:nonzero}
    .fil3 {fill:#F28935;fill-rule:nonzero}
    .fil4 {fill:#68A54E;fill-rule:nonzero}
    .fil5 {fill:#2591A6;fill-rule:nonzero}
    .fil6 {fill:#00A25F;fill-rule:nonzero}
    .fil1 {fill:#2C6A9A;fill-rule:nonzero}
    .fil11 {fill:url(#id0)}
    .fil7 {fill:url(#id1)}
    .fil9 {fill:url(#id2)}
    .fil10 {fill:url(#id3)}
    .fil12 {fill:url(#id4)}
    .fil8 {fill:url(#id5)}
    .fil13 {fill:url(#id6)}
   ]]>
  </style>
  <linearGradient id="id0" gradientUnits="userSpaceOnUse" x1="1309.83" y1="883.64" x2="2086.74" y2="883.64">
   <stop offset="0" style="stop-opacity:1; stop-color:#2A6697"/>
   <stop offset="0.478431" style="stop-opacity:1; stop-color:#287AA7"/>
   <stop offset="0.901961" style="stop-opacity:1; stop-color:#2394BC"/>
   <stop offset="1" style="stop-opacity:1; stop-color:#2394BC"/>
  </linearGradient>
  <linearGradient id="id1" gradientUnits="userSpaceOnUse" x1="237.93" y1="881.726" x2="1023.49" y2="881.726">
   <stop offset="0" style="stop-opacity:1; stop-color:#FFD126"/>
   <stop offset="0.470588" style="stop-opacity:1; stop-color:#FFC62A"/>
   <stop offset="1" style="stop-opacity:1; stop-color:#FDBE2D"/>
  </linearGradient>
  <linearGradient id="id2" gradientUnits="userSpaceOnUse" x1="780.593" y1="246.112" x2="1102.47" y2="848.298">
   <stop offset="0" style="stop-opacity:1; stop-color:#76C04E"/>
   <stop offset="0.529412" style="stop-opacity:1; stop-color:#6FB24E"/>
   <stop offset="1" style="stop-opacity:1; stop-color:#68A44D"/>
  </linearGradient>
  <linearGradient id="id3" gradientUnits="userSpaceOnUse" x1="1950.27" y1="814.612" x2="2335.31" y2="822.579">
   <stop offset="0" style="stop-opacity:1; stop-color:#2394BC"/>
   <stop offset="0.101961" style="stop-opacity:1; stop-color:#2394BC"/>
   <stop offset="0.521569" style="stop-opacity:1; stop-color:#287AA7"/>
   <stop offset="1" style="stop-opacity:1; stop-color:#2A6697"/>
  </linearGradient>
  <linearGradient id="id4" gradientUnits="userSpaceOnUse" x1="1862.55" y1="318.56" x2="1399.22" y2="963.943">
   <stop offset="0" style="stop-opacity:1; stop-color:#00AFCE"/>
   <stop offset="0.121569" style="stop-opacity:1; stop-color:#00AFCE"/>
   <stop offset="1" style="stop-opacity:1; stop-color:#2591A6"/>
  </linearGradient>
  <linearGradient id="id5" gradientUnits="userSpaceOnUse" x1="487.734" y1="305.488" x2="910.599" y2="973.343">
   <stop offset="0" style="stop-opacity:1; stop-color:#F9A433"/>
   <stop offset="0.101961" style="stop-opacity:1; stop-color:#F9A433"/>
   <stop offset="0.411765" style="stop-opacity:1; stop-color:#F49634"/>
   <stop offset="0.74902" style="stop-opacity:1; stop-color:#F28935"/>
   <stop offset="1" style="stop-opacity:1; stop-color:#F28935"/>
  </linearGradient>
  <linearGradient id="id6" gradientUnits="userSpaceOnUse" x1="1425.88" y1="236.485" x2="1355.44" y2="858.127">
   <stop offset="0" style="stop-opacity:1; stop-color:#6FB259"/>
   <stop offset="0.309804" style="stop-opacity:1; stop-color:#6FB259"/>
   <stop offset="0.988235" style="stop-opacity:1; stop-color:#00A25F"/>
   <stop offset="1" style="stop-opacity:1; stop-color:#00A25F"/>
  </linearGradient>
 </defs>
 <g id="Camada_x0020_1">
  <metadata id="CorelCorpID_0Corel-Layer"/>
  <g id="_1930830882272">
   <path class="fil0" d="M230 1199c-20,-19 -50,-28 -90,-28 -29,0 -54,2 -77,7l-8 1 0 315 59 0 0 -119c52,5 95,-8 120,-35 17,-18 26,-42 26,-71 0,-29 -10,-54 -30,-70zm-94 126c-9,0 -16,-1 -22,-1l0 -101c6,0 15,-1 26,-1 28,0 61,8 61,49 0,47 -41,54 -65,54z"/>
   <path class="fil0" d="M469 1399c-7,-27 -18,-46 -33,-58 28,-16 45,-45 45,-78 0,-26 -10,-49 -27,-64 -20,-19 -50,-28 -94,-28 -26,0 -55,3 -76,7l-8 2 0 314 59 0 0 -131 26 0c31,2 43,14 51,51 12,55 17,68 21,75l3 5 62 0 -8 -15c-5,-11 -13,-43 -21,-80zm-47 -132c0,29 -22,47 -58,47l-29 0 0 -91c6,-1 15,-2 28,-2 39,0 59,16 59,46z"/>
   <polygon class="fil0" points="574,1353 691,1353 691,1301 574,1301 574,1226 698,1226 698,1173 515,1173 515,1494 704,1494 704,1441 574,1441 "/>
   <polygon class="fil0" points="722,1494 781,1494 781,1358 894,1358 894,1306 781,1306 781,1226 903,1226 903,1173 722,1173 "/>
   <polygon class="fil0" points="991,1353 1108,1353 1108,1301 991,1301 991,1226 1115,1226 1115,1173 932,1173 932,1494 1121,1494 1121,1441 991,1441 "/>
   <polygon class="fil0" points="1141,1494 1200,1494 1200,1173 1141,1173 "/>
   <polygon class="fil0" points="1229,1226 1321,1226 1321,1494 1380,1494 1380,1226 1472,1226 1472,1173 1229,1174 "/>
   <path class="fil0" d="M1685 1362c0,38 -11,85 -63,85 -39,0 -60,-30 -60,-85l0 -189 -59 0 0 187c0,121 73,138 117,138 79,0 124,-50 124,-139l0 -186 -59 0 0 189z"/>
   <path class="fil0" d="M1969 1399c-7,-27 -17,-47 -33,-58 29,-17 46,-45 46,-78 0,-26 -10,-49 -27,-64 -21,-19 -51,-28 -94,-28 -26,0 -56,3 -76,7l-8 2 0 314 58 -1 0 -130 26 0c31,2 44,14 52,51 12,55 17,68 20,75l3 4 62 0 -7 -14c-5,-11 -13,-43 -22,-80zm-46 -132c0,29 -22,47 -58,47l-30 0 0 -91c6,-1 15,-2 29,-2 39,0 59,16 59,46z"/>
   <path class="fil0" d="M2176 1173l-61 0 -109 320 61 0 31 -94 92 0 33 94 62 0 -109 -320zm0 176l-63 0 25 -74c2,-7 4,-13 6,-20 2,6 4,13 6,21l26 73z"/>
   <path class="fil1" d="M55 1549c21,-4 62,-7 101,-7 48,0 77,4 103,19 24,13 41,37 41,69 0,30 -18,58 -57,73l0 1c40,10 69,41 69,86 0,31 -14,56 -36,73 -25,20 -67,31 -136,31 -39,0 -68,-2 -85,-5l0 -340zm78 133l25 0c42,0 64,-17 64,-43 0,-26 -21,-40 -56,-40 -17,0 -27,1 -33,2l0 81zm0 153c7,2 17,2 30,2 35,0 67,-14 67,-51 0,-35 -32,-48 -71,-48l-26 0 0 97z"/>
   <path class="fil1" d="M492 1896c-102,0 -163,-77 -163,-176 0,-104 67,-181 169,-181 106,0 164,79 164,175 0,114 -68,182 -169,182l-1 0zm4 -62c53,0 83,-50 83,-118 0,-62 -29,-115 -83,-115 -54,0 -85,52 -85,117 0,65 32,116 84,116l1 0z"/>
   <path class="fil1" d="M761 1802l-24 89 -81 0 105 -347 103 0 108 347 -85 0 -26 -89 -100 0zm88 -59l-22 -73c-5,-21 -12,-47 -17,-67l-1 0c-5,20 -10,47 -16,67l-21 73 77 0z"/>
   <path class="fil1" d="M1155 1891l-111 -347 86 0 42 147c12,41 23,81 31,124l2 0c8,-42 19,-83 31,-123l44 -148 83 0 -116 347 -92 0z"/>
   <polygon class="fil1" points="1459,1891 1380,1891 1380,1544 1459,1544 "/>
   <path class="fil1" d="M1508 1811c21,10 54,21 87,21 36,0 55,-15 55,-38 0,-21 -16,-34 -58,-48 -57,-21 -95,-53 -95,-104 0,-59 50,-103 131,-103 39,0 68,7 88,17l-17 63c-14,-7 -39,-17 -72,-17 -34,0 -51,16 -51,34 0,22 19,32 65,49 61,23 89,55 89,104 0,58 -44,107 -139,107 -40,0 -79,-10 -98,-21l15 -64z"/>
   <polygon class="fil1" points="1830,1610 1737,1610 1737,1544 2003,1544 2003,1610 1909,1610 1909,1891 1830,1891 "/>
   <path class="fil1" d="M2068 1802l-25 89 -81 0 106 -347 102 0 108 347 -84 0 -27 -89 -99 0zm87 -59l-21 -73c-6,-21 -12,-47 -17,-67l-2 0c-4,20 -10,47 -15,67l-21 73 76 0z"/>
   <path class="fil2" d="M171 550c-102,157 -163,340 -171,537l238 0c8,-150 56,-290 133,-410l-200 -127z"/>
   <path class="fil3" d="M698 361l-112 -206c-164,89 -302,217 -402,370l216 104c76,-110 178,-201 298,-268z"/>
   <path class="fil4" d="M1157 0c-202,1 -392,52 -557,141l138 193c122,-61 260,-97 407,-99l12 -235z"/>
   <path class="fil5" d="M1927 632l222 -107c-100,-153 -238,-281 -401,-370l-114 210c117,67 218,158 293,267z"/>
   <path class="fil6" d="M1733 141c-164,-89 -354,-140 -556,-141l11 235c147,3 284,40 405,102l140 -196z"/>
   <path class="fil7" d="M238 1087l785 0 -652 -410c-77,120 -125,260 -133,410z"/>
   <path class="fil8" d="M400 629l599 289 -301 -557c-120,67 -222,158 -298,268l0 0z"/>
   <path class="fil9" d="M738 334l375 525 32 -624c-147,2 -285,38 -407,99z"/>
   <g>
    <path class="fil10" d="M2330 1087l0 -54c-16,-176 -75,-340 -168,-483l0 0 -206 130c76,120 123,258 131,407l0 0 243 0z"/>
    <path class="fil11" d="M1310 1087l777 0c-8,-149 -55,-287 -131,-407l-646 407z"/>
   </g>
   <path class="fil12" d="M1335 918l592 -286c-75,-109 -176,-200 -293,-267l0 0 -299 553z"/>
   <path class="fil13" d="M1188 235l32 624 373 -522c-121,-62 -258,-99 -405,-102z"/>
   <polygon class="fil0" points="71,1977 43,1977 43,1962 117,1962 117,1977 89,1977 89,2060 71,2060 "/>
   <path class="fil0" d="M132 2012c0,-10 0,-16 -1,-23l16 0 0 14 1 0c4,-10 12,-15 19,-15 2,0 3,0 4,0l0 17c-1,-1 -3,-1 -5,-1 -8,0 -14,6 -16,14 0,1 0,3 0,5l0 37 -18 0 0 -48z"/>
   <path class="fil0" d="M248 2043c0,6 1,12 1,17l-16 0 -1 -8 0 0c-5,5 -12,9 -21,9 -14,0 -22,-10 -22,-21 0,-18 16,-27 42,-26l0 -2c0,-4 -2,-12 -15,-12 -7,0 -14,2 -19,5l-3 -11c5,-3 14,-6 25,-6 23,0 29,14 29,29l0 26zm-17 -18c-13,0 -25,3 -25,13 0,7 5,10 11,10 7,0 12,-4 13,-9 1,-2 1,-3 1,-4l0 -10z"/>
   <path class="fil0" d="M279 1957l17 0 0 42 1 0c4,-7 12,-11 22,-11 18,0 30,14 30,35 0,26 -16,38 -32,38 -9,0 -17,-3 -23,-12l0 0 -1 11 -15 0c0,-5 1,-13 1,-20l0 -83zm17 74c0,1 1,2 1,4 2,7 8,12 16,12 11,0 18,-9 18,-23 0,-12 -6,-23 -18,-23 -7,0 -14,6 -16,13 0,2 -1,3 -1,5l0 12z"/>
   <path class="fil0" d="M429 2043c0,6 1,12 1,17l-16 0 -1 -8 0 0c-5,5 -12,9 -21,9 -14,0 -22,-10 -22,-21 0,-18 16,-27 42,-26l0 -2c0,-4 -2,-12 -15,-12 -7,0 -14,2 -19,5l-3 -11c5,-3 14,-6 25,-6 23,0 29,14 29,29l0 26zm-17 -18c-12,0 -24,3 -24,13 0,7 4,10 10,10 7,0 12,-4 14,-9 0,-2 0,-3 0,-4l0 -10z"/>
   <polygon class="fil0" points="460,1957 478,1957 478,2060 460,2060 "/>
   <path class="fil0" d="M508 1957l18 0 0 42 1 0c2,-3 5,-6 9,-8 3,-2 7,-3 12,-3 12,0 24,8 24,30l0 42 -18 0 0 -40c0,-10 -3,-18 -13,-18 -7,0 -12,5 -14,10 0,2 -1,3 -1,5l0 43 -18 0 0 -103z"/>
   <path class="fil0" d="M657 2043c0,6 1,12 1,17l-16 0 -1 -8 0 0c-5,5 -12,9 -21,9 -14,0 -22,-10 -22,-21 0,-18 16,-27 42,-26l0 -2c0,-4 -2,-12 -15,-12 -7,0 -14,2 -19,5l-3 -11c5,-3 14,-6 25,-6 23,0 29,14 29,29l0 26zm-17 -18c-13,0 -25,3 -25,13 0,7 5,10 11,10 7,0 12,-4 13,-9 1,-2 1,-3 1,-4l0 -10z"/>
   <path class="fil0" d="M688 2012c0,-10 0,-16 -1,-23l16 0 0 14 1 0c3,-10 11,-15 19,-15 2,0 3,0 4,0l0 17c-1,-1 -3,-1 -5,-1 -9,0 -14,6 -16,14 0,1 -1,3 -1,5l0 37 -17 0 0 -48z"/>
   <path class="fil0" d="M805 2029c0,13 10,19 21,19 9,0 15,-2 20,-4l3 13c-7,2 -15,4 -25,4 -23,0 -36,-14 -36,-36 0,-19 12,-37 34,-37 23,0 30,18 30,34 0,3 0,6 0,7l-47 0zm31 -12c0,-7 -3,-17 -15,-17 -11,0 -16,10 -16,17l31 0z"/>
   <path class="fil0" d="M990 2057c-4,2 -13,4 -25,4 -31,0 -50,-19 -50,-49 0,-32 23,-51 52,-51 12,0 21,2 24,4l-4 14c-4,-2 -11,-4 -19,-4 -20,0 -34,13 -34,36 0,22 13,35 34,35 7,0 15,-1 19,-3l3 14z"/>
   <path class="fil0" d="M1077 2038c0,9 0,16 1,22l-16 0 -1 -11 0 0c-3,5 -10,12 -23,12 -13,0 -24,-7 -24,-30l0 -42 18 0 0 38c0,12 3,20 13,20 7,0 11,-5 13,-10 1,-1 1,-3 1,-5l0 -43 18 0 0 49z"/>
   <g>
    <path class="fil0" d="M1127 1970c0,5 -4,9 -10,9 -6,0 -10,-4 -10,-9 0,-6 4,-10 10,-10 6,0 10,4 10,10zm-19 19l18 0 0 71 -18 0 0 -71zm0 71l0 -71 0 71z"/>
   </g>
   <path class="fil0" d="M1221 1957l0 83c0,7 1,15 1,20l-16 0 -1 -12 0 0c-4,8 -13,13 -23,13 -17,0 -30,-14 -30,-36 0,-23 14,-37 31,-37 10,0 17,4 20,9l0 0 0 -40 18 0zm-18 62c0,-2 0,-4 0,-5 -2,-7 -7,-13 -15,-13 -12,0 -18,10 -18,24 0,12 6,22 18,22 7,0 13,-5 15,-13 0,-1 0,-3 0,-5l0 -10z"/>
   <path class="fil0" d="M1307 2043c0,6 0,12 1,17l-16 0 -2 -8 0 0c-4,5 -12,9 -21,9 -14,0 -22,-10 -22,-21 0,-18 16,-27 42,-26l0 -2c0,-4 -2,-12 -15,-12 -6,0 -14,2 -18,5l-4 -11c5,-3 14,-6 25,-6 23,0 30,14 30,29l0 26zm-18 -18c-12,0 -24,3 -24,13 0,7 4,10 10,10 7,0 12,-4 14,-9 0,-2 0,-3 0,-4l0 -10z"/>
   <path class="fil0" d="M1337 2012c0,-10 0,-16 -1,-23l16 0 0 14 1 0c3,-10 12,-15 19,-15 2,0 3,0 4,0l0 17c-1,-1 -3,-1 -5,-1 -8,0 -14,6 -16,14 0,1 0,3 0,5l0 37 -18 0 0 -48z"/>
   <path class="fil0" d="M1506 1957l0 83c0,7 1,15 1,20l-16 0 -1 -12 0 0c-4,8 -13,13 -23,13 -17,0 -30,-14 -30,-36 0,-23 14,-37 31,-37 10,0 17,4 20,9l0 0 0 -40 18 0zm-18 62c0,-2 0,-4 0,-5 -2,-7 -7,-13 -15,-13 -12,0 -18,10 -18,24 0,12 6,22 18,22 7,0 13,-5 15,-13 0,-1 0,-3 0,-5l0 -10z"/>
   <path class="fil0" d="M1592 2043c0,6 0,12 1,17l-17 0 -1 -8 0 0c-4,5 -12,9 -21,9 -14,0 -22,-10 -22,-21 0,-18 16,-27 42,-26l0 -2c0,-4 -2,-12 -15,-12 -7,0 -14,2 -19,5l-3 -11c5,-3 14,-6 25,-6 23,0 30,14 30,29l0 26zm-18 -18c-12,0 -24,3 -24,13 0,7 4,10 10,10 7,0 12,-4 14,-9 0,-2 0,-3 0,-4l0 -10z"/>
   <path class="fil0" d="M1621 2043c4,3 12,5 18,5 8,0 11,-3 11,-8 0,-4 -3,-7 -11,-10 -14,-5 -20,-12 -20,-20 0,-13 11,-22 27,-22 8,0 15,2 19,4l-4 12c-3,-1 -8,-4 -15,-4 -6,0 -10,3 -10,8 0,4 4,6 13,9 12,5 18,12 19,22 0,13 -10,22 -29,22 -9,0 -16,-2 -21,-5l3 -13z"/>
   <path class="fil0" d="M1736 1963c6,-1 15,-2 27,-2 13,0 23,3 29,8 6,5 9,13 9,22 0,9 -3,17 -8,22 -7,7 -18,10 -31,10 -3,0 -6,0 -8,0l0 37 -18 0 0 -97zm18 46c2,0 5,1 8,1 13,0 22,-7 22,-18 0,-11 -8,-17 -20,-17 -5,0 -9,0 -10,1l0 33z"/>
   <path class="fil0" d="M1836 2029c1,13 11,19 22,19 8,0 14,-2 20,-4l2 13c-6,2 -14,4 -24,4 -23,0 -37,-14 -37,-36 0,-19 12,-37 35,-37 23,0 30,18 30,34 0,3 0,6 0,7l-48 0zm31 -12c1,-7 -2,-17 -14,-17 -11,0 -16,10 -17,17l31 0z"/>
   <path class="fil0" d="M1909 2043c4,3 12,5 18,5 8,0 12,-3 12,-8 0,-4 -3,-7 -12,-10 -14,-5 -20,-12 -19,-20 0,-13 10,-22 26,-22 8,0 15,2 19,4l-4 12c-3,-1 -8,-4 -15,-4 -6,0 -9,3 -9,8 0,4 3,6 12,9 13,5 19,12 19,22 0,13 -10,22 -29,22 -8,0 -16,-2 -21,-5l3 -13z"/>
   <path class="fil0" d="M1981 2043c4,3 12,5 18,5 8,0 11,-3 11,-8 0,-4 -3,-7 -11,-10 -14,-5 -20,-12 -20,-20 0,-13 11,-22 27,-22 8,0 15,2 19,4l-4 12c-3,-1 -8,-4 -15,-4 -6,0 -10,3 -10,8 0,4 4,6 13,9 12,5 18,12 19,22 0,13 -10,22 -29,22 -9,0 -16,-2 -21,-5l3 -13z"/>
   <path class="fil0" d="M2121 2024c0,26 -19,37 -37,37 -19,0 -35,-14 -35,-36 0,-23 15,-37 37,-37 21,0 35,14 35,36zm-53 0c0,14 6,24 17,24 10,0 17,-10 17,-24 0,-11 -5,-23 -17,-23 -12,0 -17,12 -17,23z"/>
   <path class="fil0" d="M2201 2043c0,6 1,12 1,17l-16 0 -1 -8 0 0c-5,5 -12,9 -21,9 -14,0 -22,-10 -22,-21 0,-18 16,-27 42,-26l0 -2c0,-4 -2,-12 -15,-12 -7,0 -14,2 -19,5l-3 -11c5,-3 14,-6 25,-6 23,0 29,14 29,29l0 26zm-17 -18c-13,0 -25,3 -25,13 0,7 5,10 11,10 7,0 12,-4 13,-9 1,-2 1,-3 1,-4l0 -10z"/>
   <path class="fil0" d="M2231 2043c4,3 12,5 18,5 8,0 11,-3 11,-8 0,-4 -3,-7 -11,-10 -14,-5 -20,-12 -20,-20 0,-13 11,-22 27,-22 8,0 14,2 19,4l-4 12c-3,-1 -9,-4 -15,-4 -6,0 -10,3 -10,8 0,4 4,6 13,9 12,5 18,12 18,22 0,13 -10,22 -28,22 -9,0 -16,-2 -22,-5l4 -13z"/>
  </g>
 </g>
</svg>
