<?xml version="1.0" encoding="UTF-8"?>
<!DOCTYPE svg PUBLIC "-//W3C//DTD SVG 1.1//EN" "http://www.w3.org/Graphics/SVG/1.1/DTD/svg11.dtd">
<!-- Creator: CorelDRAW X7 -->
<svg xmlns="http://www.w3.org/2000/svg" xml:space="preserve" width="123.503mm" height="65.8659mm" version="1.1" style="shape-rendering:geometricPrecision; text-rendering:geometricPrecision; image-rendering:optimizeQuality; fill-rule:evenodd; clip-rule:evenodd"
viewBox="0 0 12350 6587"
 xmlns:xlink="http://www.w3.org/1999/xlink">
 <defs>
  <style type="text/css">
   <![CDATA[
    .fil0 {fill:#FDB92E;fill-rule:nonzero}
    .fil1 {fill:#62A650;fill-rule:nonzero}
   ]]>
  </style>
 </defs>
 <g id="Camada_x0020_1">
  <metadata id="CorelCorpID_0Corel-Layer"/>
  <g id="_1953489184992">
   <g>
    <path class="fil0" d="M3134 738c-2,-8 -4,-46 -4,-114l8 0c5,13 4,51 -4,114zm-4 -165c6,3 10,9 12,20 3,10 1,17 -4,19 -5,0 -8,-13 -8,-39zm4 -27c3,0 2,4 -4,11 -2,-2 -1,-6 4,-11zm-8 -114c3,-8 7,-13 12,-16 26,81 41,170 45,267 4,97 3,176 -4,238 -6,61 -19,142 -37,241 -10,-5 -10,-18 0,-39l-12 0 -7 0c-3,-3 -4,-8 -2,-16 1,-8 2,-13 2,-16l19 -11c3,-3 1,-5 -4,-6 -5,-2 -8,-4 -8,-6l16 -16c0,-2 -3,-5 -8,-8l-4 0c-2,-5 -1,-11 4,-19 5,-8 8,-13 8,-16 -13,-60 -4,-123 28,-189 -3,-2 -8,-5 -14,-9 -7,-4 -11,-9 -14,-14 -3,13 -5,34 -8,63 -2,29 -5,50 -8,63 -10,-24 -9,-71 4,-142 11,3 18,0 22,-10 4,-9 6,-20 6,-35 0,-14 1,-24 4,-29 -11,-6 -12,-19 -4,-40 0,-5 -3,-7 -8,-7 -3,-6 -4,-10 -4,-12 5,-5 12,-7 20,-4 5,-8 2,-15 -8,-22 -11,-6 -16,-13 -16,-21 3,0 5,0 8,2 3,1 5,2 8,2 0,-11 -5,-21 -16,-32l12 -4 -32 -137zm8 765c-5,-2 -9,-2 -13,2 -4,4 -5,9 -2,14 5,0 10,-5 15,-16zm-11 -270c10,18 9,32 -4,43 -6,-8 -4,-23 4,-43zm-12 82c-11,-10 -7,-22 12,-35 5,21 1,32 -12,35zm8 -601c0,-2 -3,-10 -8,-21 -5,-12 -8,-20 -8,-24 0,-4 4,-8 12,-14l19 28c-5,3 -8,8 -8,16 0,7 -2,13 -7,15zm-28 711c3,0 4,2 4,6 0,4 -1,6 -4,6l0 -12zm-4 -444c3,-2 5,0 8,6 3,7 1,10 -4,10 -5,-5 -6,-10 -4,-16zm8 -12c-5,-2 -8,-7 -10,-13 -1,-7 2,-10 10,-10 3,3 4,6 4,12l-4 11zm4 48c0,7 -5,11 -16,11 -5,-5 -4,-9 2,-13 7,-4 11,-4 14,2zm-12 129c0,5 -2,8 -8,8 0,-3 1,-5 2,-8 2,-2 4,-2 6,0zm-8 -98c8,-3 13,-3 16,0 -8,26 -13,39 -16,39 -2,-2 -2,-8 0,-17 3,-10 3,-17 0,-22zm4 -161c13,0 15,11 4,31 -5,0 -8,-4 -10,-13 -1,-9 1,-15 6,-18zm-4 879c21,-31 32,-87 32,-168 -3,13 -7,33 -14,60 -7,28 -12,52 -16,73 -4,21 -6,42 -6,63 3,0 4,-9 4,-28zm-4 -895l4 0c3,-2 6,-4 8,-4l0 12c-2,0 -6,-2 -12,-8zm0 -59c0,-2 3,-3 8,-3 0,7 -1,13 -4,15 -2,-2 -4,-6 -4,-12zm4 393c0,3 -2,5 -7,8l7 -8zm0 -377c0,3 1,4 2,4 2,0 2,1 2,4 0,3 0,4 -2,4 -1,0 -2,1 -2,4 -10,0 -10,-5 0,-16zm0 330c6,3 8,7 8,14 0,6 -4,11 -12,13 -2,-2 -4,-7 -5,-15 -2,-8 2,-12 9,-12zm-19 -436l8 0c13,18 15,45 7,79 -7,-3 -12,-9 -13,-20 -2,-10 -2,-21 0,-31 1,-11 0,-20 -2,-28zm8 554c15,10 13,23 -8,39 -8,-13 -6,-26 8,-39zm-8 561c-8,3 -7,8 4,16 0,-11 -2,-16 -4,-16zm-4 -408c-3,0 -4,0 -4,2 0,1 -1,2 -4,2l0 -4 4 -4 4 0 0 4zm4 -71c2,0 4,3 4,8 -6,5 -11,5 -16,0 0,-5 4,-8 12,-8zm-4 20c0,2 1,4 4,6 2,1 4,3 4,6 -6,2 -11,3 -16,3 -3,-5 0,-10 8,-15zm-8 494c-3,3 -3,7 -2,12 1,5 5,8 10,8l0 -20 -8 0zm12 -1158c-13,-5 -20,-17 -20,-35 3,-10 9,-10 20,0 -3,13 -3,25 0,35zm-8 723c0,13 -4,19 -12,19 -5,-2 -4,-8 4,-15 3,-6 5,-7 8,-4zm-8 35l-4 -4 -4 0 8 -4 0 8zm-12 67l0 8 0 -8zm20 365c-11,-5 -18,1 -24,19 -8,27 -4,41 12,44 0,-6 2,-15 6,-30 4,-14 6,-25 6,-33zm-32 -1025l0 32c0,-6 2,-11 4,-16 3,-5 4,-11 4,-16l-8 0zm4 354c0,2 -1,6 -4,11 -2,-2 -2,-5 0,-8l4 -3zm-7 624c5,-5 7,-9 7,-12 -7,0 -10,4 -7,12zm3 -891l0 -8 4 -8 -7 0c-3,2 -2,8 3,16zm-11 1032c2,0 4,-5 4,-16 -3,3 -4,8 -4,16zm0 -899c-6,3 -9,8 -10,16 -1,8 -3,13 -6,15 10,11 14,21 12,32 10,-21 12,-42 4,-63zm-16 652c0,8 -1,11 -4,11 0,-5 1,-9 4,-11zm16 -487l11 20c-15,15 -19,51 -11,106 -3,2 -9,3 -20,3 -3,-44 4,-87 20,-129zm-24 730l4 -4c3,-2 3,-5 0,-8 -3,3 -4,7 -4,12zm16 -573l-20 -8c-2,-5 0,-10 8,-14 8,-4 14,-4 20,-2 0,11 -3,19 -8,24zm-24 -491l4 4c0,3 1,3 4,0l0 -8c-5,0 -8,2 -8,4zm4 1264c-5,0 -7,-2 -6,-8 2,-5 5,-7 10,-7 3,5 1,10 -4,15zm8 -1629c-5,-18 -12,-29 -20,-31 3,10 10,21 20,31zm-16 1641c3,5 0,11 -7,16 -3,-3 0,-8 7,-16zm-19 -765l8 -8 0 12c-6,0 -8,-2 -8,-4zm0 463c2,2 3,6 2,12 -2,5 -5,7 -10,7 0,-2 -1,-5 -2,-9 -1,-4 -2,-8 -2,-10l12 0zm-8 -562l-8 0c3,8 5,12 8,12l0 -12zm4 911l-8 0 -8 -4c5,6 9,9 12,12l4 -4c2,0 2,-1 0,-4zm-8 -624c13,-42 16,-69 8,-82 0,5 -3,11 -10,19 -7,8 -10,15 -10,20 3,2 4,9 4,19 0,11 3,19 8,24zm4 -239l-12 0 -4 3c0,6 3,8 10,6 7,-1 8,-4 6,-9zm-4 541c8,-5 12,-2 12,8 -3,3 -6,10 -8,22 -3,12 -7,19 -12,21 -5,-5 -7,-9 -6,-13 2,-4 4,-11 8,-20 4,-9 6,-15 6,-18zm-4 -286c-3,0 -5,1 -8,4l-4 4c0,5 2,7 4,7l8 -15zm-23 -1127c44,136 69,246 74,330 34,-73 9,-183 -74,-330zm7 1511c0,6 -4,12 -11,20l0 -23c2,-3 6,-2 11,3zm-7 -471c5,-5 3,-8 -4,-8 0,3 1,6 4,8zm7 774l12 -36c-8,-2 -13,-2 -16,2 -2,4 -4,10 -5,18 -2,8 -4,13 -6,16l8 0 7 0zm-7 -546c7,8 9,14 3,20 -2,2 -6,4 -11,4 0,-3 2,-11 8,-24zm-16 106c-5,-3 -6,-6 -2,-10 4,-4 8,-7 14,-10 0,3 -2,6 -6,10 -4,4 -6,7 -6,10zm0 8c2,0 4,3 6,10 1,6 -1,10 -6,10 0,7 -2,11 -4,11l-4 -4 8 -7c-5,-8 -5,-15 0,-20zm0 200c-13,-5 -16,-12 -8,-20 3,-2 8,-3 16,-3 5,13 2,21 -8,23zm-12 16c5,2 7,6 6,10 -1,4 -5,6 -10,6 -3,-8 -1,-14 4,-16zm-12 -385c0,13 3,20 8,20l4 -8 0 -8 -4 0c-3,-3 -5,-4 -8,-4zm-4 448c-8,-3 -10,-8 -8,-16 3,-3 7,-4 12,-4 5,10 4,17 -4,20zm-15 -381c2,8 2,16 -2,25 -4,10 -6,17 -6,22 15,0 21,-16 15,-47l-7 0zm-4 82c-6,6 -8,13 -8,24 0,-3 1,-7 4,-12 5,-3 6,-6 4,-12zm-8 350c5,0 8,1 8,4 0,2 -3,6 -8,11 -5,-10 -5,-15 0,-15zm-20 -98c0,2 1,3 2,3 1,0 2,2 2,4 0,-2 -1,-5 -4,-7zm12 54c5,-2 8,-5 10,-7 1,-3 4,-6 10,-8 -6,34 -16,55 -32,63 0,-6 -1,-10 -4,-12l24 -20c0,-2 -2,-5 -4,-8 -3,-2 -4,-5 -4,-8zm-12 -133c0,-3 -1,-4 -4,-4l0 8c3,0 4,-1 4,-4zm-4 -78c-5,0 -8,1 -8,3 6,0 8,-1 8,-3zm-8 23c-5,0 -7,3 -7,8l11 0c0,-3 0,-4 -2,-4 -1,0 -2,-1 -2,-4zm-27 648c0,-5 3,-11 8,-18 5,-6 6,-14 4,-21 -13,21 -17,34 -12,39zm-20 -507l0 8 0 -8zm-4 574c-7,-13 -2,-23 16,-28 0,16 -5,25 -16,28zm-35 47c3,-3 4,-7 4,-12 -5,5 -7,9 -4,12zm-8 -365c0,-3 -2,-4 -8,-4l4 4 4 0zm-8 388c6,0 8,-2 8,-8 -8,0 -10,3 -8,8zm-11 -294c7,-3 13,-9 15,-20 3,-10 2,-17 -4,-19l-11 39zm-4 -75c0,3 -2,9 -4,20 -3,10 -3,17 0,19 8,-23 11,-36 11,-39l-7 0zm-12 189c2,0 4,-2 4,-4l0 -4 -4 4 0 4zm0 78c0,3 -1,4 -2,4 -1,0 -2,1 -2,4l-4 0 0 -8 8 0zm-12 189c21,-8 25,-19 12,-32l-8 12c-5,8 -7,14 -4,20zm-16 -444c-2,0 -5,1 -7,4 0,5 2,8 7,8l0 -12zm-31 126c0,7 1,14 4,19 5,-2 10,-8 16,-17 5,-10 11,-15 19,-18 -5,-11 -4,-22 2,-35 7,-14 10,-23 10,-28l-20 16c0,31 -10,52 -31,63zm-28 451c6,-3 10,-6 12,-12 3,-5 5,-9 8,-12l0 -7c-16,10 -22,21 -20,31zm-23 -16l4 -4c2,0 2,-1 0,-4 -3,3 -4,6 -4,8zm-24 47c19,-10 24,-23 16,-39 -5,11 -10,24 -16,39zm-15 -192l0 -8 0 8zm-43 173c-3,-3 -4,-5 -2,-8 1,-3 4,-4 9,-4 0,8 -2,12 -7,12zm0 -169c-6,3 -7,8 -4,16l4 -4c2,-5 2,-9 0,-12zm-12 71l0 4 4 0 0 -8c-3,0 -4,1 -4,4zm0 227l0 -7 0 3c-3,3 -3,4 0,4zm35 -168l-16 0c0,2 -1,7 -4,13 -2,7 -5,11 -9,12 -4,1 -9,2 -14,2 8,-21 16,-31 23,-31 0,-3 2,-8 4,-16 3,-8 6,-14 10,-20 4,-5 10,-9 18,-11 -3,-11 -2,-19 4,-26 5,-6 12,-10 19,-10 3,3 4,7 4,12 0,5 2,9 4,12 -18,10 -33,31 -43,63zm-63 247c11,-3 16,-9 16,-20 -11,3 -16,9 -16,20zm0 -185c-5,-13 -1,-19 12,-19 13,13 17,22 12,27 -5,0 -10,-1 -14,-4 -4,-2 -7,-4 -10,-4zm0 185l-4 4c3,0 4,-2 4,-4zm-4 -114c13,-5 23,-16 28,-31 -8,2 -17,7 -26,13 -9,7 -15,12 -17,14 2,8 2,13 0,16 -6,0 -8,-5 -8,-16 -3,3 -8,7 -16,12 0,3 1,5 4,6 3,1 4,3 4,6 0,2 -4,9 -12,19 -8,11 -16,17 -23,20 2,3 3,6 3,10l0 10c32,-13 53,-40 63,-79zm-98 134c8,-11 12,-18 12,-20 -11,-5 -16,-3 -16,8 -2,5 -1,9 4,12zm-19 129c2,0 6,-3 11,-8 -8,-2 -11,0 -11,8zm-36 -94l8 -8c-5,0 -8,3 -8,8zm-59 55c3,-3 7,-5 12,-8 11,-5 16,-11 16,-16 -5,0 -11,2 -16,4 -5,3 -9,6 -12,10 -2,4 -2,7 0,10zm-43 31c5,0 8,-1 8,-4l-8 0c-2,0 -2,2 0,4zm-20 -23c14,-13 19,-21 16,-24l-16 24zm-121 192c5,3 9,3 12,0 2,-3 2,-5 0,-8l-12 0 0 8zm-546 -1990c-16,-21 -10,-34 16,-40 0,19 -5,32 -16,40zm-35 78c5,-5 8,-4 8,4l-8 0 0 -4zm-47 118c-3,-3 -2,-6 2,-10 4,-4 8,-4 13,-2 3,3 0,5 -7,8 -3,3 -6,4 -8,4zm-8 -534l-12 24 8 0c-3,-6 -3,-10 0,-12 2,-5 4,-9 4,-12zm-43 679c0,-8 6,-12 19,-12 0,6 -2,10 -8,12 -5,3 -9,3 -11,0zm-20 -597c-3,0 -5,2 -8,6 -2,4 -2,8 0,10 0,-2 1,-5 4,-8 3,-2 4,-5 4,-8zm51 -51c-34,50 -58,108 -71,173 21,-42 45,-99 71,-173zm-78 884c2,0 5,-2 7,-4l0 8 -7 0 0 -4zm3 1225c0,-3 -2,-7 -7,-12 0,10 2,14 7,12zm-11 -1975c-6,3 -8,8 -8,16 5,0 8,-6 8,-16zm-16 23c0,3 -1,7 -4,12 -3,11 -3,16 0,16 0,-3 1,-5 4,-8 5,-10 5,-17 0,-20zm-8 1956c0,5 3,7 8,7l-8 -7zm4 -1229l-8 23c5,-10 8,-18 8,-23zm-8 66c0,24 -4,38 -12,44 -2,-8 -1,-17 4,-26 6,-9 8,-15 8,-18zm0 919c-2,3 -8,0 -16,-8 8,0 14,3 16,8zm-19 -1021c13,-13 13,-19 0,-19l0 19zm7 154l4 0c-8,65 -15,108 -23,129 0,-42 6,-85 19,-129zm-4 1063c0,-21 -3,-35 -11,-43l-8 0c5,26 12,41 19,43zm-23 -906c3,0 4,-2 4,-4 16,15 14,23 -4,23l0 -19zm0 -267c0,-3 2,-7 6,-12 4,-5 6,-9 8,-12 1,-3 0,-6 -2,-12 0,3 -2,7 -6,12 -4,5 -7,9 -8,12 -1,2 -1,6 2,12zm-4 345c0,-31 3,-48 8,-51 8,21 5,38 -8,51zm0 20c-3,-3 -4,-6 -4,-8l8 0c0,5 -1,8 -4,8zm-4 -283c0,-3 2,-8 6,-16 4,-8 3,-13 -2,-15 -8,15 -9,26 -4,31zm4 310c-5,3 -8,-1 -8,-12l8 0c3,3 4,6 4,8 0,3 -1,4 -4,4zm-4 63c-5,-5 -7,-14 -6,-27 1,-14 5,-23 10,-28 3,16 1,34 -4,55zm12 444l8 7c-24,-104 -32,-166 -24,-184l35 204 -11 -20 11 28 0 -8c6,16 4,26 -3,32 -16,-16 -21,-36 -16,-59zm-12 -197c3,6 1,11 -4,16 -2,-3 -4,-8 -4,-16l8 0zm-8 -66c5,-3 8,0 8,7 -3,-2 -5,-5 -8,-7zm0 -55l0 7 0 -7zm4 -464c5,-5 5,-11 0,-19 -5,13 -5,19 0,19zm-4 436c-8,-47 -4,-77 12,-90 0,47 -4,77 -12,90zm4 43c3,3 4,6 4,10 0,4 -3,6 -8,6 -2,-3 -4,-8 -4,-16l8 0zm4 98c-5,0 -9,-1 -12,-5 -2,-4 -2,-10 0,-16 3,-7 6,-10 8,-10 8,8 9,18 4,31zm-27 -459c5,-8 8,-19 9,-35 2,-16 4,-26 6,-32l-4 -3c-10,28 -14,52 -11,70zm23 -781c3,0 5,-3 8,-8 0,-5 3,-6 8,-4 -3,18 -11,43 -24,73 -13,30 -21,50 -23,61 42,-50 68,-117 78,-201l8 -4 8 0 0 -19c13,-11 22,-33 27,-67 -10,11 -19,27 -27,49 -8,22 -16,39 -24,49 -5,-2 -10,-3 -15,-2 -6,2 -8,5 -8,10l8 4c2,0 4,1 4,4 -6,8 -4,16 4,23l-40 16c0,3 2,5 4,8 3,3 4,5 4,8zm-27 789c0,8 -2,22 -6,43 -4,21 -6,37 -6,49 0,12 2,24 8,38 5,-55 6,-99 4,-130zm-24 -27l0 7c0,6 1,8 4,8 5,-5 7,-12 4,-19 -3,0 -5,1 -8,4zm12 196c-42,254 -24,487 55,699 -53,-184 -71,-417 -55,-699zm-20 -734l-4 8 0 7c6,0 9,-2 10,-7 1,-6 -1,-8 -6,-8zm0 27c-2,-2 -5,-1 -8,4 -2,5 -2,9 0,12 0,-3 2,-5 6,-6 4,-1 5,-5 2,-10zm-12 750c6,0 7,-4 4,-12l-7 0 3 4 0 8zm-3 -797l-4 0 4 4 3 0c0,-3 -1,-4 -3,-4zm3 67c-10,13 -15,31 -15,55l8 -24c7,-13 10,-23 7,-31zm-27 78c13,-8 16,-14 8,-19 0,2 -2,6 -4,9 -3,4 -4,8 -4,10zm-8 -39c0,3 -1,5 -2,6 -1,1 -2,3 -2,6 3,-3 4,-7 4,-12zm-8 499c-2,2 -2,5 0,8l0 -8zm0 -409c13,0 19,-2 16,-7 -5,-8 -12,-8 -20,0 0,5 2,7 4,7zm-19 840c8,-18 8,-53 0,-106l0 106zm0 -734l0 16c5,0 8,-3 8,-8 0,-5 -3,-8 -8,-8zm4 617l0 -4c0,-5 -2,-8 -4,-8 -3,8 -2,12 4,12zm-16 -546c2,0 6,-3 12,-8l0 -14c0,-6 -2,-11 -4,-13 -8,13 -11,25 -8,35zm-12 -51c11,0 13,-3 8,-8 0,-2 -1,-2 -4,0 0,3 -1,4 -2,4 -1,0 -2,1 -2,4zm-47 361l0 -4c3,-2 4,-5 4,-8 -3,3 -4,7 -4,12zm-4 4c-3,3 -3,5 -2,8 1,3 3,4 6,4 0,-8 -1,-12 -4,-12zm1983 -396c0,-6 1,-15 4,-30 2,-14 3,-25 3,-33 -10,2 -17,10 -21,23 -4,13 -7,31 -10,53 -3,23 -4,36 -4,42 8,-3 13,-11 16,-24 2,-13 6,-21 12,-24 -6,45 -12,71 -20,79 -5,0 -11,-1 -16,-2 -5,-1 -9,-2 -11,-2 -6,13 -8,34 -8,63 -6,-5 -11,-4 -16,4 0,2 1,5 4,8 2,2 4,5 4,7l12 0c-16,103 -25,154 -28,154 -8,2 -16,-7 -23,-28 -3,-2 -4,-5 -4,-8 -6,6 -11,14 -16,26 -5,12 -9,20 -12,25 5,42 -14,104 -59,185 -2,0 -4,-2 -4,-6 0,-4 -1,-7 -4,-10l-11 24c0,2 2,4 7,4l8 0c-8,28 -18,51 -31,66 -5,3 -9,3 -12,0 -2,-2 -5,-4 -8,-4 -5,6 -9,17 -11,34 -3,17 -6,27 -8,29l4 0c2,0 4,2 4,4 -6,34 -23,56 -52,67 3,3 6,3 8,0 6,-3 9,-4 12,-4 -3,5 -8,19 -16,41 -7,22 -16,39 -25,51 -9,12 -20,19 -33,22 -11,10 -16,19 -16,27 2,0 6,-2 10,-6 4,-4 7,-6 9,-6 -115,236 -267,441 -455,617l0 19c-8,-2 -22,-1 -43,4 -113,84 -200,130 -263,138l-16 15c-136,14 -264,-13 -385,-80 -120,-67 -218,-154 -294,-261 -21,-31 -59,-111 -114,-240l-4 0c-2,3 -5,3 -8,0 0,-2 2,-3 4,-3 6,0 8,-2 8,-4 0,-6 -7,-34 -21,-87 -15,-52 -22,-89 -22,-110 -8,-26 -14,-53 -18,-82 -4,-29 -6,-61 -6,-96 0,-36 -1,-61 -4,-77 0,-301 41,-585 122,-854 81,-268 195,-553 342,-854 13,-13 27,-34 43,-64 16,-30 33,-56 51,-77 18,-21 42,-37 71,-47 83,-21 132,-29 145,-24 5,6 14,10 25,14 12,4 19,7 22,10 42,55 47,119 16,192 -24,16 -47,44 -71,85 -24,40 -42,67 -55,80l-12 0c-26,39 -59,98 -98,177 -39,78 -65,129 -78,153 -3,3 -6,3 -8,0 -3,-3 -6,-4 -8,-4 -8,21 -21,50 -39,88 -19,38 -34,73 -46,104 -11,32 -19,63 -21,95 -3,7 -9,19 -18,33 -9,14 -15,26 -17,33 -3,8 -3,21 0,40 -11,2 -16,9 -16,19 0,3 1,4 4,4 2,0 4,2 4,4 -8,18 -13,29 -16,32 3,2 3,9 2,21 -1,12 1,20 6,26 -26,13 -35,31 -28,55 3,5 10,7 20,7 0,11 -3,16 -8,16 0,-8 -4,-12 -12,-12 -26,37 -38,63 -35,79 3,0 5,-4 8,-12 0,34 -4,54 -12,59 -3,-3 -4,-8 -4,-16 -89,356 -102,687 -39,994 0,2 5,3 16,3l7 8c0,6 -5,8 -15,8 0,3 0,7 2,12 1,5 2,9 2,12 2,0 5,-3 8,-8 2,-8 6,-12 11,-12 -8,-21 -6,-33 4,-35 29,81 43,137 43,169 3,0 11,9 24,27 3,0 0,-8 -8,-24 11,3 19,11 26,24 6,13 13,30 19,49 7,20 13,34 18,41 0,3 3,4 8,4l8 -4c15,34 59,87 129,157l47 24c92,-5 163,-20 212,-43 76,-39 145,-85 206,-136 62,-51 119,-111 171,-180 53,-70 94,-128 124,-175 30,-47 71,-116 122,-208 51,-92 87,-156 108,-192 28,-76 77,-187 145,-334 13,-55 44,-145 94,-271 5,-3 8,-2 8,2 0,4 1,6 4,6 10,0 13,-4 8,-12 0,-5 -3,-8 -8,-8l-8 0c3,-8 18,-64 47,-169 29,-104 46,-184 51,-239 5,-8 8,-22 8,-43 3,-3 6,-4 12,-4l15 0c-2,-5 -6,-8 -11,-8 -6,0 -8,-1 -8,-4 0,-24 4,-39 12,-47l4 0 0 4 0 6c0,1 1,2 3,2 6,0 8,-4 8,-12 -21,-8 -26,-16 -15,-24 2,-2 5,-2 7,0 3,3 6,4 8,4 -2,0 -4,-4 -4,-11l-11 0c2,-34 8,-83 17,-146 9,-63 15,-110 18,-141 2,-3 6,-4 10,-4l10 0c-3,-3 -6,-7 -10,-14 -4,-6 -6,-12 -6,-17 2,-3 6,-4 12,-4l7 -4c0,-3 -2,-3 -7,-2 -6,1 -8,-1 -8,-6 26,-280 -11,-503 -110,-667 5,0 8,-3 8,-8 0,-3 -7,-13 -20,-32 -3,0 -4,4 -4,12 -13,0 -21,-5 -23,-16l15 0c-2,-5 -8,-10 -15,-15l-24 11c-3,-5 -3,-10 0,-15l-31 0c2,2 7,6 13,11 7,6 12,10 16,14 4,4 6,10 6,18 -8,-3 -19,-9 -33,-20 -15,-10 -25,-17 -30,-19 -251,78 -419,225 -504,441 -85,216 -63,447 68,693 8,5 19,20 32,43 -3,11 -4,27 -4,47 -21,21 -53,32 -94,32 -19,-24 -57,-43 -114,-59 -42,-42 -67,-64 -75,-67l-8 -27c-57,-87 -91,-183 -100,-291 -9,-107 -3,-204 18,-290 21,-87 52,-169 94,-248 175,-246 386,-379 632,-400l24 12c23,-3 45,-3 66,0 21,2 43,8 65,17 22,10 39,17 51,22 12,5 30,15 55,29 25,15 41,25 49,30 8,34 30,73 65,118 35,44 57,74 65,90 0,11 -1,17 -4,20 -11,-8 -26,-29 -45,-63 -20,-34 -39,-55 -57,-63l-16 -27c3,15 15,43 35,82 21,39 29,69 24,90 -8,-2 -13,-12 -16,-29 -2,-17 -6,-30 -11,-38 -19,3 -20,12 -4,28 26,76 39,182 39,318l0 8c-3,2 -5,4 -8,4 0,2 1,5 2,8 1,2 2,5 2,7l-4 12c-5,6 -12,9 -20,12 -2,-3 -4,-6 -4,-10l0 -10c-7,11 -12,29 -13,53 -2,25 -4,42 -6,49 21,8 34,25 39,50 5,24 0,43 -16,56 6,0 10,2 12,4 0,3 0,9 -2,18 -1,9 -3,16 -6,22l-4 0 -4 0c-2,0 -3,2 -3,8 0,5 -2,7 -4,7 -3,-7 -5,-21 -6,-39 -2,-18 -2,-30 -2,-35 -11,26 -18,70 -22,131 -4,62 -10,104 -17,128 -3,0 -8,3 -16,10 -8,6 -16,8 -24,6 26,39 36,70 28,94 5,-8 10,-21 13,-39 4,-19 9,-32 14,-40 24,50 20,93 -12,130 3,5 2,12 -2,21 -3,10 -3,16 2,18 -5,3 -8,13 -9,30 -2,17 -8,28 -18,33 0,-11 -3,-17 -8,-20 -5,3 -9,12 -12,28 -2,15 -9,26 -19,31 5,21 6,35 4,43 -3,8 -9,19 -18,32 -9,13 -15,23 -18,31 3,3 6,5 10,8 4,3 7,5 10,8 0,3 -6,10 -18,21 -12,12 -13,25 -6,38 6,0 12,4 20,12 0,13 3,20 8,23l-28 35c-5,0 -6,-2 -4,-7l0 -4c-13,2 -13,10 0,23 -10,11 -15,19 -15,24 0,2 2,5 6,8 4,2 6,6 6,11l-12 0 -12 36c3,5 4,6 6,4 1,-3 3,-3 6,0 -8,13 -15,28 -20,47 -5,0 -8,-4 -8,-12 -2,3 -6,4 -12,4 3,8 2,20 -1,35 -4,16 -4,28 1,36 -23,31 -36,53 -39,66 3,3 5,3 8,0l4 -4c-3,-2 -1,-5 4,-7l4 -4c2,2 1,5 -4,7l0 4 -4 0c5,6 4,12 -4,20 -3,3 -5,3 -6,0 -1,-3 -3,-4 -6,-4 -2,3 -5,9 -8,18 -2,9 -5,15 -7,17 13,6 13,23 2,53 -12,30 -18,50 -18,57 13,-13 25,-34 37,-62 12,-29 22,-49 30,-59 7,2 18,1 31,-4 3,5 2,10 -2,13 -4,4 -8,4 -14,-1 -2,2 -1,5 4,7 5,3 8,7 8,12 0,3 -8,4 -23,4 0,5 2,10 5,14 4,4 6,7 6,10l-15 0c-8,15 -8,31 0,47 -16,18 -28,40 -36,66 -2,3 -5,4 -8,4l-7 0c2,16 4,26 4,30 0,4 -3,10 -8,19 -6,10 -10,17 -12,22 -5,0 -8,-4 -8,-12 -5,6 -8,12 -8,20 0,3 2,4 6,4 4,0 6,1 6,4 -3,2 -6,13 -10,31 -4,18 -12,28 -25,28l0 7c5,6 6,10 4,12 -6,6 -12,7 -20,4 -11,-2 -16,0 -16,8l4 0c3,-3 7,-4 12,-4 0,21 -3,32 -8,32l-12 -24c-5,18 -4,30 4,35 -5,34 -23,66 -55,95l16 0c0,10 -7,19 -20,27l0 8c3,5 4,9 4,12 -2,2 -6,4 -10,4l-9 0 0 -8 -4 -4c-3,-3 -2,-5 2,-8 4,-3 6,-5 6,-8 -11,-26 -5,-60 17,-102 22,-42 34,-65 34,-71 7,3 19,-8 35,-31 2,-3 4,-3 4,0l4 4c2,-5 3,-9 2,-12 -2,-3 -5,-5 -10,-8 -5,-2 -8,-5 -8,-8 0,-5 3,-13 10,-23 6,-11 8,-20 6,-28 -6,6 -13,19 -24,42 -10,22 -22,37 -35,45 0,-8 -1,-15 -4,-20 -3,0 -5,1 -8,4 -3,3 -5,4 -8,4 -8,31 -25,73 -51,124 -26,51 -43,87 -51,108 18,-21 39,-57 63,-108 24,-51 42,-87 55,-108 0,21 -4,41 -12,60 -8,20 -17,41 -27,63 -11,23 -19,40 -24,53 8,0 14,2 20,4 -6,8 -11,12 -16,12 -3,0 -4,-1 -4,-4l-4 -8c-5,3 -14,17 -27,43 2,0 7,-3 13,-9 7,-7 14,-10 22,-10l0 19 8 4c5,3 9,4 12,4 -11,21 -21,33 -32,36 -5,-6 -4,-12 2,-18 7,-7 9,-11 6,-14l-361 475c115,-99 191,-184 228,-255 8,-8 17,-10 27,-8 11,3 15,9 12,20 29,-18 57,-54 84,-106 28,-53 51,-88 69,-106 0,-8 3,-18 8,-30 5,-11 6,-22 4,-33 21,-18 42,-54 63,-106 21,-52 40,-89 59,-110 136,-330 228,-598 278,-805 0,6 -1,14 -4,26 -2,12 -2,21 0,29 13,-18 20,-39 20,-63 -3,-2 -8,-4 -16,-4l0 -23c5,0 9,3 10,8 1,5 3,8 6,8 8,-11 14,-40 20,-87 0,-2 -3,-4 -8,-4l-8 0c-5,-26 2,-51 23,-74 -2,-26 -3,-43 -2,-51 2,-8 9,-21 22,-40 13,-18 21,-31 24,-39 0,16 1,28 4,36 5,0 9,-2 13,-6 4,-4 7,-6 10,-6 -21,227 -65,425 -133,593z"/>
   </g>
   <path class="fil0" d="M5875 1044l0 -66c-24,0 -40,3 -48,11 32,11 48,29 48,55zm-397 -180c0,2 -3,4 -8,4 0,-8 3,-10 8,-4zm-165 98c5,0 9,-1 12,-4 -8,0 -12,1 -12,4zm-597 -79c0,3 -2,4 -7,4 0,-2 2,-4 7,-4zm-353 -4l-12 24c8,3 15,3 22,0 6,-3 12,-4 18,-4 2,0 4,2 5,6 2,4 4,5 6,2 6,3 8,1 8,-4 3,-3 5,-4 8,-4 3,0 5,2 6,6 1,4 3,5 6,2 13,-5 19,-9 19,-12 29,5 244,0 644,-16l12 -11c3,0 8,1 16,4 8,0 13,1 16,3l-8 0c2,6 10,8 23,8 0,-2 0,-5 -2,-8 -1,-2 -2,-5 -2,-7 16,-16 30,-13 43,7 8,-7 21,-9 40,-5 18,4 30,2 35,-6 5,8 18,11 39,11 0,-10 8,-15 24,-15 5,8 14,12 27,12 13,0 23,-3 28,-8 2,8 10,10 21,8 12,-3 19,-7 22,-12l12 12c5,-6 9,-8 12,-8 2,5 18,8 47,8 8,-8 14,-12 19,-12l8 12c5,5 11,6 16,3l0 -7c0,-6 1,-8 4,-8l16 0c7,2 11,8 11,15 24,0 37,-2 40,-7 128,15 198,25 212,27 -144,-63 -384,-78 -719,-47 -68,-8 -139,-10 -214,-6 -74,4 -173,11 -296,22 -123,10 -200,15 -232,15zm-12 1645c-2,0 -5,2 -8,4 -2,3 -2,6 0,8l4 -4c3,-2 4,-5 4,-8zm1429 -1566c16,-11 38,-10 65,2 28,12 48,32 61,61 -8,-29 -17,-50 -28,-63 -10,-13 -19,-21 -25,-24 -7,-2 -10,-5 -10,-8 -44,-20 -93,-33 -145,-37 -52,-4 -111,-4 -175,0 -64,4 -114,5 -151,2 -21,11 -57,14 -108,10 -51,-4 -86,-3 -104,2 -3,-3 -3,-5 -2,-8 1,-2 1,-4 -2,-4 -5,0 -44,3 -116,8 -72,5 -134,9 -186,12 -53,2 -92,1 -118,-4 -3,0 -3,-3 -2,-8 1,-5 -1,-8 -6,-8 -13,-2 -42,-2 -86,2 -45,4 -75,6 -90,6l-4 4c-3,5 -7,9 -12,12 -21,23 -47,29 -79,17 -31,-11 -62,-17 -92,-15 -30,1 -46,19 -49,53 427,-34 729,-46 907,-36 248,-31 424,-24 526,20 3,0 3,-2 2,-6 -1,-4 -1,-7 2,-10 10,6 18,8 23,8l0 4c0,5 2,8 4,8zm-1468 1672c24,-28 48,-68 75,-117 -6,10 -17,28 -34,55 -17,26 -30,47 -41,62zm16 -78c-16,13 -30,34 -43,63 2,0 17,-21 43,-63zm-51 133l8 -15 -12 11c0,3 1,4 4,4zm4 -63c-11,0 -13,7 -8,20 0,-2 2,-6 6,-10 4,-4 4,-7 2,-10zm-16 75c3,-5 3,-8 0,-8 -3,5 -3,8 0,8zm12 -12l-20 24c8,2 15,0 22,-8 6,-8 8,-16 6,-24 -3,-2 -4,-1 -4,4l-4 4zm-12 -35c-8,8 -11,13 -8,16 5,2 9,1 10,-4 1,-5 1,-9 -2,-12zm-8 63l0 -4 -4 0 4 4zm-20 -28c8,-5 12,-10 12,-15 -2,0 -6,5 -12,15zm0 0c-2,3 -3,8 -3,16 2,0 3,-5 3,-16zm-19 32c-5,2 -8,6 -8,11 0,-2 1,-3 4,-3 2,-3 4,-6 4,-8zm39 -4l-35 51c0,-5 -2,-8 -4,-8 -8,3 -15,10 -20,24l8 0 8 0 -16 19c5,-2 11,-9 16,-19 5,-6 8,-11 8,-16 2,2 5,4 8,4 23,-24 32,-42 27,-55zm-102 145l43 -59 -67 67c6,3 10,2 14,-2 4,-4 7,-6 10,-6zm0 0c-5,3 -17,27 -35,75l23 -12c-5,-13 -7,-22 -6,-26 2,-4 5,-10 10,-17 5,-8 8,-15 8,-20zm-51 90c3,3 6,-1 12,-11l4 -4c-11,0 -16,5 -16,15zm-24 51c0,-26 -6,-26 -19,0l19 0zm-39 -8c-8,-5 -15,-7 -21,-7 -7,0 -13,2 -18,6 -5,3 -8,9 -8,17l47 -16zm-133 -1574c2,-2 4,-6 4,-12l-4 0 0 12zm-4 -518c44,13 91,12 141,-4 -89,0 -136,1 -141,4zm0 632c2,-2 4,-5 4,-8 2,-5 4,-9 4,-12 -6,0 -9,2 -10,6 -2,4 -1,9 2,14zm-16 -82c11,0 16,-6 16,-16 0,-5 -2,-8 -4,-8 0,5 -1,9 -4,12 -5,5 -8,9 -8,12zm0 125c0,-2 2,-8 6,-17 4,-10 5,-17 2,-22 0,5 -2,12 -6,20 -4,7 -5,14 -2,19zm-8 134c5,0 9,-3 10,-10 1,-7 1,-11 -2,-14 0,3 -2,6 -6,10 -4,4 -4,9 -2,14zm-4 -208c5,-6 7,-9 4,-12l-4 4c-2,2 -2,5 0,8zm0 247l0 -16c-2,-2 -4,-1 -4,4 0,5 2,9 4,12zm-19 -204c7,0 11,-3 11,-8 -7,-3 -11,0 -11,8zm23 -644c-16,0 -25,1 -27,4 18,10 27,9 27,-4zm-27 927c0,-8 -2,-12 -4,-12l0 8c0,2 1,4 4,4zm-4 -252c10,0 13,-4 8,-12l-8 0 0 4c-3,3 -3,6 0,8zm-8 130c5,0 8,-3 8,-8 0,-5 -2,-9 -4,-12 0,3 -1,5 -2,8 -1,3 -2,7 -2,12zm12 -126c-8,0 -13,5 -16,14 -3,9 -1,16 4,22l8 -12c5,-8 6,-16 4,-24zm-20 306c3,-2 3,-4 0,-4 -3,3 -3,4 0,4zm-4 -133c3,-3 4,-7 4,-12 3,-2 4,-5 4,-8 -5,0 -8,7 -8,20zm-8 -94c6,-3 10,-9 14,-18 4,-9 3,-15 -2,-18 -10,21 -14,33 -12,36zm0 15l0 -15c3,-3 4,-6 2,-8 -1,-3 -3,-4 -6,-4 0,18 2,27 4,27zm4 -39c5,-2 8,-1 8,4 0,11 -5,20 -16,28 -2,5 -4,5 -4,0l12 -40 0 8zm-27 228c5,-3 8,-9 10,-18 1,-9 0,-16 -2,-21 -6,21 -8,34 -8,39zm4 -149c-8,15 -12,26 -12,31 5,0 10,-4 14,-12 4,-8 3,-14 -2,-19zm-24 78c8,0 12,-5 12,-16 -8,0 -12,6 -12,16zm-19 71c7,0 14,-13 19,-39 -5,0 -9,2 -12,7 -2,6 -4,12 -4,18 0,7 -1,11 -3,14zm3 133c3,-5 2,-8 -3,-8 -3,6 -2,8 3,8zm-7 -94l0 -8c-3,3 -3,6 0,8zm-20 55c16,-21 21,-38 16,-51 -21,21 -27,38 -16,51zm-8 161l0 -16c0,3 -1,6 -2,10 -1,4 -1,6 2,6zm-8 24c3,0 4,-2 4,-4l0 -4c-2,-3 -4,0 -4,8zm8 -150c5,-10 8,-17 8,-19 -11,5 -18,19 -22,43 -4,24 -7,37 -9,39 20,-29 28,-49 23,-63zm-20 475c6,0 8,-3 8,-9 0,-7 -2,-10 -8,-10 -5,0 -5,6 0,19zm-3 -392c-8,8 -8,13 0,16 2,-3 3,-6 3,-10 0,-4 -1,-6 -3,-6zm-24 526c8,-24 10,-46 8,-67 -5,11 -8,33 -8,67zm20 -1688l-14 0c-7,0 -10,1 -10,4 16,0 24,-2 24,-4zm-24 1252c3,0 8,-4 16,-12 0,-7 -3,-14 -8,-19 0,2 -2,7 -6,13 -4,7 -5,13 -2,18zm-8 28c-5,18 -5,28 0,31l0 -31zm-12 59c3,-6 4,-12 4,-20l0 8c0,5 -1,9 -4,12zm0 176c0,-5 -1,-8 -3,-8 0,3 1,6 3,8zm-3 310c2,-2 4,-9 5,-19 2,-11 1,-19 -2,-24 -7,21 -9,35 -3,43zm-4 83c0,-5 -2,-8 -4,-8l0 8c0,2 1,2 4,0zm-4 35l4 -4c0,-5 -2,-8 -4,-8 -3,8 -3,12 0,12zm8 -589c-14,19 -16,34 -8,47 8,-23 10,-39 8,-47zm-40 200c11,-10 11,-17 0,-19l0 8c-2,5 -2,9 0,11zm-31 228c2,-8 2,-12 0,-12l0 12zm-59 -1719c0,-6 2,-8 6,-8 4,0 8,0 14,2 5,1 10,2 15,2 -2,5 -8,8 -17,9 -9,2 -15,0 -18,-5zm-12 11c11,0 15,4 12,12 -8,0 -12,-4 -12,-12zm-35 -4c-3,-7 0,-12 8,-13 8,-2 13,0 15,6 0,5 -4,7 -11,7l-12 0zm530 -31c8,0 12,-1 12,-4l0 -8c-16,-2 -36,-3 -61,-2 -25,2 -44,2 -57,2 -3,3 -4,9 -4,20 -5,-3 -9,-3 -12,0 -5,3 -9,4 -12,4 -2,-3 -4,-5 -4,-8l-4 -8c-18,0 -51,3 -98,8 0,3 3,4 8,4 5,0 8,1 8,4 -3,5 -6,6 -12,4 -5,-3 -8,-7 -8,-12 -15,3 -41,2 -78,-2 -37,-4 -60,-3 -71,2 0,3 3,7 8,12 8,13 8,22 0,27 -23,-5 -37,-6 -39,-4 5,-2 8,-14 8,-35 -108,-5 -191,8 -252,39 50,8 107,13 171,14 64,1 116,1 155,-2 40,-3 99,-7 179,-14 80,-6 131,-11 155,-13l8 -12c8,-5 8,-11 0,-16zm-518 -12c-45,-18 -96,-22 -153,-12 62,11 113,15 153,12zm2434 16l27 98c0,37 -14,55 -43,55 -3,3 -9,1 -20,-4 -10,-5 -15,-12 -15,-19 -3,-3 -8,-12 -16,-28 -3,-5 -5,-9 -8,-12 -3,-2 -6,-8 -12,-15 -10,-16 -56,-27 -137,-32 -81,-5 -190,-6 -328,-2 -137,4 -264,9 -381,16 -116,6 -252,14 -406,23 -154,10 -254,16 -298,18 -55,118 -123,299 -205,542 -7,16 -14,26 -19,31 -3,3 -5,16 -8,40 -45,115 -94,286 -149,514 -60,173 -108,402 -142,687 3,16 4,29 2,39 -1,11 -1,18 0,24 2,5 4,11 8,17 4,7 11,14 22,22 39,-8 69,-18 88,-30 20,-11 43,-31 69,-58 26,-28 52,-51 78,-69 40,-58 111,-144 214,-259 104,-115 179,-215 226,-299 -5,40 -18,76 -39,110 -21,34 -35,66 -43,95 -11,-3 -19,2 -24,13 -5,12 -6,23 -4,34 13,-11 28,-31 45,-61 17,-30 34,-51 49,-61 -5,8 -11,20 -17,37 -7,17 -13,32 -20,45 -6,14 -14,25 -21,36l58 -75c-10,29 -53,118 -127,267 -75,149 -120,233 -136,251 0,6 -2,12 -7,20 -6,8 -11,15 -16,22 -5,6 -7,11 -4,13 -8,16 -24,33 -47,51 -24,19 -38,40 -43,63 -131,110 -248,122 -350,36 -31,-21 -63,-45 -94,-71 -73,-115 -106,-232 -98,-350 31,-303 114,-671 247,-1103 13,-47 30,-94 51,-141 13,-50 58,-187 134,-412 -581,57 -908,48 -982,-28 -36,-26 -61,-58 -72,-96 -12,-38 -8,-74 13,-108 6,-8 20,-10 44,-8 18,16 32,28 43,36 86,18 181,28 284,31 104,3 191,1 261,-4 71,-5 161,-13 271,-23 110,-11 190,-17 240,-20 8,-5 17,-22 27,-51 -2,-3 -6,-2 -12,2 -5,4 -10,4 -15,2l12 -36c7,-23 15,-47 23,-70l12 -32c0,-7 2,-13 6,-17 4,-4 8,-7 12,-10 3,-3 7,-5 9,-8 0,-5 -2,-14 -8,-25 -5,-12 -5,-19 0,-22 6,0 19,7 40,20 5,-6 10,-15 14,-30 3,-14 7,-24 9,-29 -8,-3 -13,-2 -17,2 -4,4 -9,6 -14,6 -3,-16 7,-39 29,-69 23,-30 32,-57 30,-81 23,-49 49,-91 78,-125 71,-5 144,35 220,121 8,50 -13,129 -63,236 -49,107 -76,174 -78,200 65,0 112,-4 141,-12 5,0 168,-4 487,-13 319,-9 535,-11 648,-6 149,8 238,57 267,149z"/>
   <path class="fil0" d="M5419 1523c-2,-8 -8,-9 -16,-4 3,3 8,4 16,4zm-63 -15c8,0 12,-3 12,-8 -8,0 -12,2 -12,8zm-78 -52c-5,0 -8,3 -8,8 8,0 10,-2 8,-8zm-36 20c-10,0 -15,3 -15,8 10,0 15,-3 15,-8zm-19 173c2,0 8,-4 16,-12 -8,0 -14,4 -16,12zm-12 -161c-181,102 -322,238 -424,408 134,-175 275,-311 424,-408zm-47 129c5,-2 42,-27 110,-74 -11,5 -18,4 -24,-4 26,-18 51,-39 75,-63 -92,21 -164,62 -216,122 -84,52 -164,131 -239,235 5,0 7,2 7,4 -78,50 -131,139 -157,267 32,-34 55,-59 71,-74 0,-3 -1,-6 -4,-8 -3,-3 -4,-7 -4,-12 8,-5 21,-18 39,-39 19,-21 37,-34 55,-40 21,-36 47,-72 77,-107 30,-36 65,-73 106,-112 40,-40 71,-71 92,-95 -2,3 -4,2 -4,-3 0,-6 2,-10 4,-12 3,0 4,2 4,8 0,2 1,4 2,5 1,2 3,2 6,2zm-448 566c6,0 7,-4 4,-12 -2,0 -4,4 -4,12zm-19 43c2,-5 1,-8 -4,-8 -3,5 -1,8 4,8zm-51 -393l0 -23c-11,10 -11,18 0,23zm-114 256l4 7c2,-5 1,-7 -4,-7zm-8 172c26,-42 64,-163 114,-365 -16,11 -28,34 -37,71 -10,37 -17,59 -22,67 0,2 3,4 8,5 5,2 6,4 4,6 0,3 -2,4 -6,4 -4,0 -7,2 -10,4 0,8 -3,19 -8,34 -5,14 -9,25 -12,33 -2,8 -1,18 4,31 -2,0 -6,3 -11,8 2,11 -1,28 -10,51 -9,24 -14,41 -14,51zm868 -808c86,10 132,36 137,78 5,31 -22,47 -82,47 -14,0 -28,-1 -44,-4 -47,19 -93,41 -137,69 -45,27 -86,59 -124,94 -38,35 -71,67 -100,94 -29,28 -59,63 -90,106 -31,44 -54,75 -67,95 -13,19 -33,51 -61,94 -27,43 -42,66 -45,69 0,-6 2,-11 6,-16 4,-5 5,-12 2,-20 -18,13 -35,39 -51,79 -16,39 -26,64 -31,74 7,-2 16,-15 25,-37 9,-22 19,-36 30,-41 -19,57 -40,98 -63,122 0,-3 2,-14 8,-32 -34,52 -63,120 -87,202 -23,83 -39,147 -47,193 -8,45 -21,126 -39,241 -63,16 -118,-6 -165,-67 0,-2 -2,-3 -6,-2 -4,2 -7,2 -10,2l-51 -78c58,-327 115,-588 173,-781l0 -20c8,-34 33,-121 77,-261 43,-140 71,-251 84,-332 3,-2 7,-10 14,-21 6,-12 12,-21 17,-26 47,-8 87,-5 118,8 8,10 23,21 45,33 23,12 40,26 51,41 12,16 18,38 18,67 -8,32 -21,76 -39,132 -19,56 -32,97 -40,123 19,-15 52,-48 101,-98 48,-49 87,-87 117,-114 30,-26 71,-51 122,-76 51,-25 101,-37 151,-37l79 0c-26,7 -40,13 -40,15 14,0 28,-5 44,-15z"/>
   <path class="fil0" d="M6216 1928c8,-19 10,-29 8,-32 -8,19 -11,29 -8,32zm-27 62c13,-13 15,-23 7,-31 0,3 -1,8 -4,16 -2,8 -3,13 -3,15zm-40 118c16,-39 23,-61 20,-67 0,8 -4,19 -12,34 -8,14 -10,25 -8,33zm-19 -70c-16,31 -25,57 -28,78 26,-10 36,-37 28,-78zm-36 278c29,-91 46,-159 51,-204 -2,5 -11,33 -25,84 -15,52 -23,91 -26,120zm-11 -86l-8 0c0,3 1,5 4,8l0 -4c0,-3 1,-4 4,-4zm-16 220c8,-13 14,-36 18,-67 3,-31 7,-51 9,-59l-4 -4c-18,66 -26,109 -23,130zm-12 70c0,-2 1,-5 2,-9 1,-4 2,-8 2,-10 -5,0 -8,2 -8,8 0,5 1,9 4,11zm-12 44c8,-6 11,-11 8,-16 -2,0 -5,1 -8,4l-4 4c0,2 2,5 4,8zm32 -311c-8,11 -15,30 -20,57 -5,28 -10,47 -16,57l4 4 4 4c3,-8 12,-48 28,-122zm-40 197c0,-13 -1,-20 -3,-20 -3,3 -4,7 -2,12 1,5 3,8 5,8zm-39 -244c13,-21 19,-34 16,-39l-8 16c-5,8 -8,15 -8,23zm-12 20c6,0 8,-4 8,-12l-12 8 4 4zm-23 -79c0,-2 1,-5 4,-7l-4 4c-3,0 -3,1 0,3zm8 114c-21,13 -37,42 -47,87 28,-50 44,-79 47,-87zm23 32c3,0 6,1 8,4 3,2 5,2 8,0 13,-24 30,-80 51,-169 -65,110 -102,196 -110,259 -23,18 -51,76 -82,173 15,-21 30,-45 45,-71 14,-26 29,-56 45,-88 16,-33 29,-59 39,-77 -2,-2 -5,-5 -8,-8l-4 -4c3,-2 4,-6 4,-11l4 -8zm-133 172c5,-5 26,-40 63,-106 -6,6 -27,41 -63,106zm-8 20c5,-3 7,-8 4,-16 -5,6 -7,11 -4,16zm4 98c8,-5 8,-9 0,-12 -5,-2 -9,-2 -12,0 -3,3 -2,6 2,10 4,4 7,5 10,2zm-35 47c15,-10 23,-21 23,-31 -16,3 -23,13 -23,31zm-99 4c74,-91 164,-255 271,-490 -23,13 -44,34 -62,62 0,3 1,6 3,8 6,8 6,13 0,16 -2,0 -3,-1 -3,-4 0,-3 -1,-5 -3,-6 -1,-1 -3,-2 -5,-2 -8,29 -14,45 -16,47 5,8 -4,30 -28,67 8,21 -3,41 -35,59 -8,34 -28,78 -61,131 -32,54 -53,91 -61,112zm-11 28c5,-5 7,-9 7,-12 -5,0 -9,1 -11,4 0,3 1,5 4,8zm-44 -848l4 -8c6,-3 7,-5 4,-8 -8,8 -10,13 -8,16zm-66 133c-6,0 -8,4 -8,12 5,0 8,-4 8,-12zm12 -208c-11,5 -23,21 -36,47 18,-18 30,-34 36,-47zm325 385c-2,3 -4,5 -4,8 29,-45 49,-98 59,-161 29,-100 34,-225 16,-377 -5,-5 -9,-5 -12,0 -222,220 -373,557 -451,1013l0 61c0,32 2,58 8,76 41,-39 81,-86 119,-141 38,-55 68,-103 91,-143 22,-41 51,-97 88,-169 37,-72 64,-125 82,-159 0,-3 2,-5 4,-8zm-404 -236c-3,0 -4,2 -4,4l4 -4zm-16 28c-10,15 -17,27 -19,35 5,0 10,-4 15,-14 6,-9 7,-16 4,-21zm-153 546c76,-317 213,-622 412,-915 -47,47 -90,104 -129,171 -39,66 -70,124 -92,172 -23,49 -52,116 -89,202 -36,87 -63,150 -78,189 2,18 -1,49 -10,92 -9,43 -14,73 -14,89zm993 -848c42,18 75,45 99,80 23,35 24,73 3,112 -149,256 -239,618 -270,1083 5,6 19,49 43,130 -68,13 -122,-8 -161,-63l-8 4c-3,3 -5,3 -8,0 -18,-18 -33,-39 -45,-61 -12,-22 -22,-44 -30,-65 -7,-20 -12,-46 -13,-76 -2,-30 -3,-54 -4,-71 -2,-17 0,-42 4,-76 4,-34 7,-59 10,-73 2,-14 7,-39 13,-73 7,-34 10,-55 10,-62 -5,0 -9,4 -12,11 -2,8 -2,15 0,20 -10,13 -46,80 -108,200 -61,121 -121,206 -178,255 -113,32 -190,16 -232,-47l-19 0c-37,-31 -75,-90 -114,-176 -21,-233 44,-503 196,-809 3,3 3,7 0,12 -3,5 -3,9 0,11 24,-23 37,-48 39,-74 -8,5 -15,14 -21,27 -7,14 -13,21 -18,24 5,-13 26,-58 63,-134 36,-75 65,-128 84,-157 20,-28 55,-60 106,-94 51,-34 109,-51 175,-51 71,8 130,37 179,88 48,52 66,116 52,195 29,-89 84,-119 165,-90z"/>
   <g>
    <path class="fil0" d="M7468 2230c8,-5 12,-11 12,-16 -3,0 -6,5 -12,16zm-4 -279c-5,8 -4,19 4,32 3,0 4,-11 4,-32l-8 0zm0 59c-7,3 -12,8 -13,16 -2,8 -1,17 2,29 2,12 4,20 4,26 10,-16 17,-29 19,-40 -5,-2 -9,-7 -12,-15l0 -16zm-15 94c2,0 5,-2 8,-8 2,-5 2,-10 0,-15l-4 0c0,2 -1,6 -2,10 -2,3 -2,8 -2,13zm-24 224c11,-10 15,-22 12,-35 -13,13 -17,25 -12,35zm-4 -149c-2,2 -2,4 0,4 3,-3 3,-4 0,-4zm-15 169c7,-3 10,-7 7,-12 -5,0 -7,4 -7,12zm-28 55c18,-13 28,-30 28,-51 -19,10 -39,32 -61,64 -23,33 -36,52 -42,57 0,3 2,6 6,10 4,4 6,7 6,10 3,0 7,-5 12,-14 5,-9 10,-11 16,-6 0,6 -2,11 -4,16 -3,5 -4,9 -4,12 13,0 21,-7 23,-22 3,-14 0,-25 -7,-33 2,-3 6,-5 11,-8 6,-3 9,-5 12,-8 3,-2 5,-6 6,-12 1,-5 1,-10 -2,-15zm-51 -55l-24 47c27,-16 34,-32 24,-47zm-31 145l0 -12 -8 0c-6,8 -3,12 8,12zm-4 -196l-12 -16 0 16 12 0zm-4 294c2,0 4,-3 4,-8l4 -4c-3,0 -6,-1 -10,-4 -4,-2 -7,-2 -10,0 0,3 2,6 6,8 4,3 6,5 6,8zm-12 -39c10,0 18,-2 22,-6 3,-4 7,-10 11,-18 4,-8 8,-13 10,-15 -2,0 -4,-3 -6,-8 -1,-5 -3,-8 -6,-8 -13,18 -23,37 -31,55zm-12 19l8 0c0,-2 -1,-4 -4,-4l-4 0 0 4zm12 -785c-11,0 -14,3 -12,8 8,0 12,-2 12,-8zm-35 868l0 -8 0 8zm4 -915l-4 0 0 4 4 0 0 -4zm-12 872c8,0 10,-3 8,-8 -6,0 -8,2 -8,8zm0 -110c29,-29 43,-50 43,-63 -16,16 -30,37 -43,63zm-8 -746c-8,0 -12,2 -12,8 8,2 12,0 12,-8zm-4 -738c-13,8 -16,16 -8,23 0,-2 1,-6 4,-9 3,-4 4,-9 4,-14zm8 1492c-8,5 -21,23 -39,55 23,-24 36,-42 39,-55zm-39 -1834c-8,0 -12,3 -12,8 8,0 12,-2 12,-8zm-16 436c2,-3 8,-10 16,-24 -6,3 -11,11 -16,24zm8 1468c-8,3 -12,7 -12,12 8,3 12,-1 12,-12zm-4 -1872c0,-6 -3,-8 -8,-8l4 8c0,-3 1,-3 4,0zm-20 1967l0 3 -4 0 4 -3zm43 -903c-2,2 -12,8 -29,17 -17,9 -27,19 -30,30 37,-6 57,-21 59,-47zm-62 -994c10,-2 18,-15 23,-39 5,-5 8,-12 8,-20 -11,0 -13,7 -8,20l-4 0c-10,16 -17,29 -19,39zm0 1861c15,-5 23,-18 23,-39 0,3 -5,8 -14,16 -9,7 -12,15 -9,23zm-8 138c23,-13 53,-46 90,-99 -13,6 -24,14 -33,24 -10,10 -19,24 -30,39 -10,16 -19,28 -27,36zm8 -1999c-6,13 -8,21 -8,24 10,0 13,-8 8,-24zm-8 432c-3,-2 -5,-1 -6,4 -2,5 -1,9 2,12 0,-3 1,-5 4,-8 2,-3 2,-5 0,-8zm-16 1516c13,-6 20,-11 20,-16 -14,0 -20,5 -20,16zm110 -903c-31,15 -68,49 -110,102 13,-6 26,-13 37,-24 12,-10 26,-25 42,-43 15,-18 26,-30 31,-35zm-102 -1005c-8,18 -12,28 -12,31 13,-13 17,-24 12,-31zm-8 1028c-5,0 -8,3 -8,8l8 0 0 -8zm-16 32l-11 0c0,5 1,7 3,7 8,0 11,-2 8,-7zm-23 832c36,-29 52,-50 47,-63 -3,11 -11,22 -24,35 -13,13 -21,23 -23,28zm-4 118c31,-16 51,-32 59,-47 -19,5 -38,21 -59,47zm-16 -844c13,-6 29,-20 47,-44 -10,3 -26,17 -47,44zm16 -1060c-11,7 -19,24 -24,51 21,-11 29,-28 24,-51zm-28 1821c3,-2 8,-6 14,-10 7,-4 10,-8 10,-13 -11,0 -18,7 -24,23zm36 -852c-8,-2 -15,-2 -20,2 -5,4 -10,10 -16,18 -5,8 -9,13 -11,16 26,5 41,-7 47,-36zm-36 -911c-8,3 -11,12 -11,28 2,0 6,-9 11,-28zm-11 440c5,0 9,-2 11,-8 3,-5 2,-10 -4,-15 0,2 -2,6 -5,11 -4,6 -5,10 -2,12zm23 562c-18,7 -30,23 -35,47l8 -4c5,0 7,-2 7,-4l0 -12c14,-5 20,-14 20,-27zm-16 -48c0,3 -2,4 -7,4l-12 0c2,11 8,13 15,8 6,-2 7,-6 4,-12zm-19 -616c5,-2 8,-7 10,-14 1,-6 0,-11 -2,-13 -8,13 -11,22 -8,27zm-4 648c-8,-3 -12,0 -12,8 3,0 7,-3 12,-8zm-12 74c3,0 3,2 0,4 -3,3 -3,4 0,4l0 -8zm-8 -855c-8,7 -10,13 -8,15 6,0 8,-5 8,-15zm-15 369c2,2 3,2 3,0 0,-3 -1,-4 -3,-4l0 4zm-12 -314c5,0 8,-3 8,-8 -6,0 -8,2 -8,8zm4 -197c-3,0 -5,2 -6,6 -2,4 -1,7 2,10 5,-5 6,-10 4,-16zm-16 420c10,-10 16,-19 16,-27 -3,-3 -4,-3 -4,0 -8,16 -12,25 -12,27zm8 -392c-3,0 -6,3 -10,10 -4,6 -5,11 -2,13l12 -23zm-20 439c5,-10 8,-19 8,-27 -5,0 -8,4 -10,12 -1,8 0,13 2,15zm-12 32c0,-3 2,-7 6,-14 4,-6 2,-10 -6,-10l0 24zm8 -420c-2,0 -4,2 -4,8l-4 4c6,0 8,-4 8,-12zm-27 255c5,0 8,-3 8,-8 0,-5 -2,-9 -4,-12 0,3 -2,6 -4,8 -3,3 -3,7 0,12zm0 0c-3,0 -4,1 -4,4l4 -4zm0 216c8,-13 9,-21 4,-24l-4 12c-5,8 -5,12 0,12zm-8 -212c0,8 1,12 4,12l0 -12 -4 0zm-4 239l4 -7 -4 -4 0 11zm-12 20l8 0c5,-8 4,-12 -4,-12 -5,6 -6,9 -4,12zm-4 -400c19,-19 25,-36 20,-51 0,5 -3,13 -8,23 -5,11 -9,20 -12,28zm0 0c-5,5 -8,13 -8,23 8,-5 11,-13 8,-23zm-11 439c10,0 15,-9 15,-27 -10,0 -15,9 -15,27zm-8 24c2,-3 2,-7 0,-12l0 12zm-4 -491l-4 0c-3,5 -2,9 4,12l0 -12zm8 67c-14,26 -20,40 -20,43 18,-10 25,-25 20,-43zm-36 498c8,-2 11,-9 8,-19 -5,0 -8,6 -8,19zm-8 -486c-2,2 -3,5 -2,9 2,4 4,6 6,6l4 -4 0 -11 -8 0zm165 765c-70,79 -131,168 -180,267 18,-29 47,-72 88,-129 41,-58 71,-104 92,-138zm-180 -420c28,-23 38,-50 27,-78 -5,7 -14,34 -27,78zm-8 569l-8 0 4 8c8,0 9,-2 4,-8zm-12 -306c3,3 5,1 8,-4 3,-5 1,-9 -4,-12 0,8 -1,14 -4,16zm0 463c-3,-2 -5,-2 -8,0 -2,3 -4,7 -4,12 8,0 12,-4 12,-12zm-16 32l4 -4c3,-3 3,-5 0,-8 -2,3 -4,7 -4,12zm271 259c47,-52 109,-144 185,-275 -16,3 -28,14 -36,33 -7,20 -18,30 -31,30 8,-21 30,-54 67,-98 0,2 -2,6 -4,12 -3,5 -3,10 0,15 23,-5 38,-29 43,-70 -5,2 -9,6 -12,11 -2,6 -5,8 -8,8 6,-29 15,-46 28,-51 5,5 10,7 16,4 2,-3 6,-7 11,-14 6,-6 10,-12 12,-17 -8,-3 -14,0 -18,9 -3,10 -7,16 -9,18 2,-21 27,-77 74,-169 47,-91 63,-175 47,-251 -264,165 -480,440 -647,825 21,26 43,40 66,43 24,2 45,-2 63,-12 18,-11 41,-23 67,-37 26,-15 48,-23 67,-26 2,0 5,2 7,6 3,4 7,6 12,6zm-279 -1194l-3 0c-3,3 -3,6 0,8l3 -8zm-11 538c2,-2 4,-6 4,-11l-4 3 0 8zm4 -514c-6,5 -7,9 -4,12 2,0 4,-4 4,-12zm-12 326c37,-53 56,-109 59,-169 -3,8 -12,32 -28,73 -15,40 -26,72 -31,96zm-4 636c13,0 17,-4 12,-12 -8,0 -12,4 -12,12zm-8 -106c3,2 4,14 4,35 52,-105 137,-235 255,-392 -13,7 -28,22 -45,43 -17,21 -32,35 -45,43 -3,0 -3,-3 -2,-8 1,-5 -1,-8 -6,-8 3,0 4,6 4,16l-16 0c0,3 3,5 8,8 5,2 8,6 8,12 0,5 -4,7 -12,7l-4 -4c-2,-2 -5,-3 -8,-3 -2,2 -1,10 4,23 -13,-8 -23,-5 -31,8 0,3 1,5 4,8 2,0 4,-3 6,-8 1,-5 4,-8 10,-8 0,16 -14,39 -40,71 -2,0 -4,-2 -6,-6 -1,-4 -4,-5 -9,-2 -3,5 -2,9 4,12 5,2 7,5 7,8 -2,5 -6,11 -11,19 -6,8 -10,15 -12,22 -3,6 -7,12 -14,15 -6,4 -14,6 -22,6 -5,29 -13,47 -23,55 0,3 1,6 4,8 2,3 4,5 4,8l-16 12zm-4 -263c0,2 3,1 8,-4 -8,0 -10,1 -8,4zm114 -746c-8,26 -22,65 -43,116 -21,51 -39,97 -53,137 -15,41 -26,81 -34,120 11,-32 32,-90 65,-175 33,-85 55,-151 65,-198zm-145 707c10,-11 15,-24 15,-40 -10,3 -15,16 -15,40zm0 -95c36,-57 49,-98 39,-121 -3,13 -9,32 -20,57 -10,24 -17,46 -19,64zm0 -204c0,-2 1,-5 4,-8 5,-8 5,-13 0,-15 0,2 -2,6 -6,11 -4,6 -4,10 2,12zm-4 -90c-3,0 -4,1 -4,4 0,8 1,12 4,12l0 -16zm-4 23c-3,3 -5,4 -8,4 5,6 8,4 8,-4zm-8 401c5,2 8,1 8,-4l0 -8c-5,0 -9,1 -12,4l4 4 0 4zm16 -75l0 -15c0,-8 -3,-13 -8,-16 0,3 -2,8 -6,16 -4,7 -6,14 -6,19 3,3 9,2 20,-4zm-20 114c0,-2 1,-4 4,-6 3,-1 3,-3 0,-6 -3,0 -5,2 -6,4 -1,3 0,6 2,8zm-4 16l0 -12c-2,0 -4,2 -4,6 0,4 2,6 4,6zm-8 -310c6,0 10,-5 14,-14 4,-9 3,-15 -2,-18l-12 32zm8 -102c-5,0 -8,7 -8,23 3,0 4,-2 4,-8 0,-8 2,-13 4,-15zm-4 318c-8,15 -11,25 -11,27l15 0c0,-18 -1,-27 -4,-27zm-11 -177c7,-16 11,-26 11,-31 -8,2 -11,13 -11,31zm0 318c0,-3 2,-7 7,-12 11,-13 11,-22 0,-27 0,2 -2,9 -7,19 -6,11 -6,17 0,20zm-8 -404c0,2 -2,5 -4,7 -3,3 -3,6 0,8 5,0 8,-2 8,-6 0,-4 -2,-7 -4,-9zm-8 23c-3,5 -2,9 4,12 0,-8 -2,-12 -4,-12zm-4 314c5,5 10,8 16,8 0,-3 2,-11 5,-25 4,-15 4,-25 -1,-30 -3,5 -6,13 -10,24 -4,10 -8,18 -10,23zm0 -302c0,3 1,5 4,8 0,-5 -2,-8 -4,-8zm-4 27c-3,0 -4,4 -4,12 8,0 9,-4 4,-12zm0 330l0 -23c-11,10 -11,18 0,23zm-28 47c3,-2 6,-5 8,-8l-4 4c-5,0 -6,2 -4,4zm-7 -169c31,-70 49,-130 55,-180 -34,112 -53,173 -55,180zm11 -129c-5,3 -8,7 -9,14 -2,6 -4,9 -6,9 5,8 9,6 11,-7 3,-6 4,-11 4,-16zm413 -903c-163,325 -307,709 -432,1154 29,-76 71,-196 127,-361 57,-165 109,-311 157,-438 49,-127 99,-245 152,-355l-4 0zm-440 1076l-4 4c0,2 1,3 4,3l0 -7zm-16 55l0 15c8,-8 8,-13 0,-15zm-4 357c6,0 8,-2 8,-6 0,-4 -2,-6 -8,-6l0 12zm4 -255c8,-6 14,-15 18,-30 4,-14 8,-24 14,-29l-12 -16c0,8 -6,28 -18,59 -12,31 -16,56 -14,75 19,-27 23,-46 12,-59zm-12 -153c-2,2 -3,5 -3,7l3 -4 0 -3zm-7 23c-8,8 -10,13 -4,16l4 -4c2,-5 2,-9 0,-12zm-20 291c21,-42 30,-74 27,-95 -2,-2 -5,-4 -7,-4 -14,32 -20,65 -20,99zm0 -228c-8,8 -8,13 0,16 -3,-3 -3,-6 0,-10 3,-4 3,-6 0,-6zm-8 126c5,0 8,-6 8,-16 -5,0 -8,5 -8,16zm-20 188c8,0 15,-12 20,-35l-8 -4c-2,2 -6,15 -12,39zm-3 -106c2,-3 3,-7 3,-12l0 4c-2,3 -3,5 -3,8zm-8 149c8,0 11,-4 11,-12 -7,0 -11,4 -11,12zm4 -235l-4 0 0 4 4 0 0 -4zm-4 263c10,-11 10,-16 0,-16 -3,0 -4,2 -4,6 0,4 1,7 4,10zm-12 -99c3,-2 4,-5 4,-7 0,2 -1,4 -2,4 -1,0 -2,1 -2,3zm4 -113c-3,2 -4,5 -4,8 0,-3 1,-6 4,-8zm-4 278c0,-5 3,-14 8,-27 5,-13 5,-24 0,-32 -8,35 -11,54 -8,59zm-8 79c0,-18 1,-31 4,-39 -3,-3 -5,-4 -8,-4 3,5 2,13 -2,23 -4,11 -2,17 6,20zm-4 82c-5,0 -8,-1 -8,-4 8,-18 12,-41 12,-70 -18,10 -23,40 -16,90 3,0 7,-5 12,-16zm1111 -958c34,42 55,96 63,161 8,66 0,116 -24,150 -115,327 -290,570 -526,730 -13,0 -28,4 -45,12 -17,7 -33,10 -49,7 -94,-13 -162,-47 -204,-102 -10,0 -18,-5 -24,-15 3,-8 0,-21 -9,-40 -10,-18 -14,-30 -14,-35 -11,60 -21,98 -32,114 -2,3 -5,3 -7,0l-4 -4c-11,24 -20,60 -28,110 -8,50 -13,80 -15,90l-28 12c-29,-11 -46,-22 -51,-35 -13,-3 -27,-12 -43,-26 -16,-14 -26,-23 -32,-25 -5,-14 -21,-36 -49,-67 -27,-32 -42,-64 -45,-98 -2,-181 24,-342 79,-483 2,-32 12,-72 29,-122 17,-50 27,-88 30,-114l7 -8c6,0 10,-1 12,-3 -2,-16 -4,-27 -4,-32 0,-5 4,-16 12,-33 8,-17 12,-28 12,-34l4 0 4 -4c-6,-10 -4,-22 4,-35 2,-2 5,-2 7,0l4 4c13,-21 19,-38 16,-51l-20 39c3,-18 29,-104 79,-259 8,0 12,3 12,8l23 -47c-2,-5 -5,-6 -8,-2 -2,4 -5,6 -7,6 -8,-24 -2,-38 19,-43 0,10 -1,17 -4,19 16,-13 24,-32 24,-59 0,-2 -1,-2 -4,0 -3,3 -5,4 -8,4 0,-15 9,-44 28,-86 5,-3 7,-1 7,4l4 4c11,-8 16,-21 16,-39 5,-6 11,-17 16,-36 5,-18 8,-29 8,-31 -3,0 -5,2 -6,6 -2,4 -4,6 -6,6 2,-29 10,-55 23,-79 3,-3 7,-3 12,-2 5,1 8,1 8,-2 -5,-13 -4,-29 4,-49 8,-20 12,-32 12,-37 15,-3 23,-15 23,-36 0,-21 7,-32 20,-35 0,-2 -1,-5 -2,-8 -1,-2 -2,-5 -2,-8 13,-5 20,-9 20,-11 -13,-24 -6,-42 23,-55 -13,-16 -6,-28 20,-36 -8,-28 2,-52 31,-70 13,-45 45,-117 94,-216 50,-100 79,-183 87,-252 18,-5 33,-9 45,-11 12,-3 27,1 47,11 20,11 35,20 45,26 11,7 25,17 43,31 19,15 32,25 40,30 26,60 34,104 23,131 -10,28 -31,65 -61,112 -30,47 -46,87 -49,118 -18,3 -25,18 -19,47 -6,0 -8,-2 -8,-8 -19,11 -22,26 -12,47 -8,-2 -13,-1 -16,4 -2,6 -5,12 -8,20 -2,8 -6,13 -11,16l15 15c-2,0 -4,2 -4,4 -5,6 -11,6 -19,0 -3,3 -7,9 -12,18 -5,9 -8,16 -10,22 -1,5 0,13 2,23 -23,11 -31,30 -23,59 -37,31 -51,59 -44,82 -13,16 -31,53 -54,110l-8 8c0,3 3,6 9,10 7,4 9,9 6,14 -23,0 -35,8 -35,23 0,6 3,8 8,8 5,0 8,2 8,4 2,5 1,8 -4,8 -5,0 -11,-3 -16,-8 -34,94 -56,149 -67,165 6,13 -1,26 -19,39l-4 -8c0,-2 -2,-5 -4,-7 -5,2 -8,11 -8,27 0,5 4,8 12,8 -11,52 -32,120 -63,204 -31,84 -52,144 -63,181 -16,2 -23,13 -23,33 0,20 -2,32 -4,37l-8 -4c0,3 -3,8 -8,14 -5,7 -8,13 -8,18 0,2 3,4 8,4 5,0 9,2 12,8 10,-16 36,-48 76,-97 41,-48 69,-88 85,-119 13,-8 27,-21 43,-38 16,-17 29,-29 39,-37 0,-10 5,-20 14,-27 9,-8 21,-16 35,-24 15,-8 24,-14 30,-20 44,-65 117,-91 220,-76 102,14 179,55 231,123z"/>
   </g>
   <path class="fil0" d="M8575 1928c8,-19 11,-29 8,-32 -8,19 -10,29 -8,32zm-27 62c13,-13 16,-23 8,-31 0,3 -2,8 -4,16 -3,8 -4,13 -4,15zm-39 118c15,-39 22,-61 19,-67 0,8 -4,19 -12,34 -7,14 -10,25 -7,33zm-20 -70c-16,31 -25,57 -27,78 26,-10 35,-37 27,-78zm-35 278c28,-91 45,-159 51,-204 -3,5 -11,33 -26,84 -14,52 -23,91 -25,120zm-12 -86l-8 0c0,3 1,5 4,8l0 -4c0,-3 1,-4 4,-4zm-16 220c8,-13 14,-36 18,-67 4,-31 7,-51 10,-59l-4 -4c-19,66 -26,109 -24,130zm-12 70c0,-2 1,-5 2,-9 2,-4 2,-8 2,-10 -5,0 -7,2 -7,8 0,5 1,9 3,11zm-11 44c8,-6 10,-11 8,-16 -3,0 -6,1 -8,4l-4 4c0,2 1,5 4,8zm31 -311c-8,11 -14,30 -20,57 -5,28 -10,47 -15,57l4 4 4 4c2,-8 11,-48 27,-122zm-39 197c0,-13 -2,-20 -4,-20 -3,3 -3,7 -2,12 1,5 3,8 6,8zm-39 -244c13,-21 18,-34 15,-39l-8 16c-5,8 -7,15 -7,23zm-12 20c5,0 8,-4 8,-12l-12 8 4 4zm-24 -79c0,-2 2,-5 4,-7l-4 4c-2,0 -2,1 0,3zm8 114c-21,13 -37,42 -47,87 29,-50 44,-79 47,-87zm24 32c2,0 5,1 7,4 3,2 6,2 8,0 13,-24 30,-80 51,-169 -65,110 -102,196 -110,259 -23,18 -51,76 -82,173 16,-21 31,-45 45,-71 14,-26 30,-56 45,-88 16,-33 29,-59 40,-77 -3,-2 -6,-5 -8,-8l-4 -4c2,-2 4,-6 4,-11l4 -8zm-134 172c5,-5 26,-40 63,-106 -5,6 -26,41 -63,106zm-8 20c5,-3 7,-8 4,-16 -5,6 -6,11 -4,16zm4 98c8,-5 8,-9 0,-12 -5,-2 -9,-2 -12,0 -2,3 -2,6 2,10 4,4 8,5 10,2zm-35 47c16,-10 23,-21 23,-31 -15,3 -23,13 -23,31zm-98 4c73,-91 163,-255 271,-490 -24,13 -45,34 -63,62 0,3 1,6 4,8 5,8 5,13 0,16 -3,0 -4,-1 -4,-4 0,-3 -1,-5 -2,-6 -2,-1 -3,-2 -6,-2 -8,29 -13,45 -16,47 5,8 -4,30 -27,67 8,21 -4,41 -36,59 -7,34 -28,78 -60,131 -33,54 -53,91 -61,112zm-12 28c5,-5 8,-9 8,-12 -5,0 -9,1 -12,4 0,3 1,5 4,8zm-43 -848l4 -8c5,-3 6,-5 4,-8 -8,8 -11,13 -8,16zm-67 133c-5,0 -8,4 -8,12 5,0 8,-4 8,-12zm12 -208c-11,5 -22,21 -36,47 19,-18 31,-34 36,-47zm326 385c-3,3 -4,5 -4,8 29,-45 48,-98 59,-161 28,-100 34,-225 15,-377 -5,-5 -9,-5 -11,0 -223,220 -373,557 -452,1013l0 61c0,32 3,58 8,76 42,-39 82,-86 120,-141 38,-55 68,-103 90,-143 22,-41 52,-97 88,-169 37,-72 64,-125 83,-159 0,-3 1,-5 4,-8zm-405 -236c-2,0 -4,2 -4,4l4 -4zm-15 28c-11,15 -17,27 -20,35 5,0 10,-4 16,-14 5,-9 6,-16 4,-21zm-154 546c76,-317 214,-622 413,-915 -47,47 -91,104 -130,171 -39,66 -70,124 -92,172 -22,49 -52,116 -88,202 -37,87 -63,150 -79,189 3,18 -1,49 -10,92 -9,43 -14,73 -14,89zm994 -848c42,18 74,45 98,80 23,35 25,73 4,112 -149,256 -240,618 -271,1083 5,6 20,49 43,130 -68,13 -122,-8 -161,-63l-8 4c-2,3 -5,3 -8,0 -18,-18 -33,-39 -45,-61 -12,-22 -21,-44 -29,-65 -8,-20 -13,-46 -14,-76 -1,-30 -3,-54 -4,-71 -1,-17 0,-42 4,-76 4,-34 7,-59 10,-73 2,-14 7,-39 14,-73 6,-34 9,-55 9,-62 -5,0 -9,4 -11,11 -3,8 -3,15 0,20 -11,13 -47,80 -108,200 -62,121 -121,206 -179,255 -112,32 -190,16 -232,-47l-19 0c-37,-31 -75,-90 -114,-176 -21,-233 44,-503 196,-809 3,3 3,7 0,12 -2,5 -2,9 0,11 24,-23 37,-48 40,-74 -8,5 -16,14 -22,27 -7,14 -13,21 -18,24 5,-13 26,-58 63,-134 37,-75 65,-128 85,-157 19,-28 54,-60 106,-94 51,-34 109,-51 174,-51 71,8 130,37 179,88 48,52 66,116 53,195 29,-89 84,-119 165,-90z"/>
   <g>
    <path class="fil0" d="M9447 860c-13,21 -19,36 -16,47 11,-24 16,-39 16,-47zm-28 78c6,-5 8,-10 8,-15 -5,0 -8,2 -10,5 -1,4 0,8 2,10zm-86 326c0,-5 2,-10 6,-16 4,-5 6,-9 6,-11 -16,0 -20,9 -12,27zm-8 -106c42,-89 64,-145 67,-169 0,3 -3,9 -10,18 -7,9 -8,18 -6,25 -21,24 -40,66 -59,126 3,-2 4,-2 4,0l4 0zm-19 169l3 0c0,-5 -1,-7 -3,-4l0 4zm3 -263c-2,0 -5,3 -7,10 -3,6 -3,12 0,17 5,-10 7,-19 7,-27zm-3 -83c-3,0 -5,2 -6,6 -2,4 -1,8 2,10 0,-2 1,-5 4,-8 2,-2 2,-5 0,-8zm3 283c-7,0 -11,5 -11,16 8,0 11,-5 11,-16zm-15 -153c0,-3 -2,-4 -4,-4 0,3 1,4 4,4zm-12 279c3,2 4,1 4,-4 -3,0 -4,1 -4,4zm4 -365c0,2 -1,5 -2,7 -1,3 -2,6 -2,8 5,0 8,-2 8,-6 0,-3 -2,-7 -4,-9zm-20 333c3,6 5,2 8,-11 -5,5 -8,9 -8,11zm0 -180c8,-3 13,-11 16,-26 3,-14 3,-24 0,-29l-16 55zm-4 -165c6,-5 8,-11 8,-16 -8,5 -10,11 -8,16zm-4 479l12 0c0,-5 -1,-8 -4,-8l-4 4 -4 4zm-7 43c5,0 8,-3 9,-8 2,-5 1,-9 -2,-12 0,3 0,6 -2,10 -1,4 -3,7 -5,10zm7 47l-11 -35c-6,10 -8,18 -8,23 8,0 14,4 19,12zm-15 -349c-6,2 -7,8 -4,15 0,-2 1,-5 4,-7 2,-3 2,-6 0,-8zm-8 357l0 -12 -4 4 0 8 4 0zm0 -338c0,3 -2,6 -4,8 -3,5 -3,9 0,12 10,-10 12,-17 4,-20zm-4 385c2,0 6,-6 12,-20 -21,0 -30,4 -28,12 3,0 5,-2 8,-6 3,-4 7,-6 12,-6l0 8 0 4c-3,3 -4,6 -4,8zm-8 -530c3,3 -1,12 -12,28 3,2 6,0 8,-8l8 -4c0,-11 -1,-16 -4,-16zm-16 224c3,0 5,-1 6,-4 2,-3 1,-5 -2,-8l0 4c-2,3 -4,5 -4,8zm8 365c8,-10 12,-22 12,-35 -8,0 -12,-2 -12,-4l4 -8c0,-3 -1,-4 -4,-4 -16,13 -22,30 -19,51l19 0zm-16 -346c-5,11 -7,18 -7,20l11 -20 -4 0zm4 -200c-5,11 -10,29 -15,55 0,-5 2,-12 8,-19 5,-8 9,-14 11,-18 3,-4 2,-10 -4,-18zm-11 581l-8 -8 0 8 8 0zm82 -459c8,0 13,-1 16,-4 21,-60 31,-94 31,-102 -21,0 -25,9 -12,27l-19 12c0,13 -8,34 -24,63 -15,29 -22,52 -19,71 -14,15 -26,43 -38,82 -11,39 -20,63 -25,71 8,-5 14,-15 19,-28 6,-13 12,-22 20,-27 -5,-13 -5,-25 0,-35 5,-11 13,-12 24,-4 0,5 -2,11 -6,19 -4,8 -5,16 -2,24 21,-34 29,-58 23,-71 -2,3 -4,7 -4,14 0,6 -2,10 -7,10 -8,-11 -9,-23 -2,-36 6,-13 16,-22 29,-27 -3,-5 -2,-15 2,-30 4,-14 2,-24 -6,-29zm-98 247c3,-2 4,-6 4,-11l-4 3c-3,3 -3,6 0,8zm12 -310c-13,21 -19,38 -16,51 10,-21 16,-38 16,-51zm-24 346c3,0 5,-3 6,-8 1,-5 1,-9 -2,-12 0,3 -1,6 -2,10 -1,4 -2,7 -2,10zm-4 325l4 0 0 4 -8 0 4 -4zm-4 -404c11,-10 21,-44 32,-102 -16,31 -26,66 -32,102zm-4 -177l0 24c0,-3 2,-6 4,-12 3,-5 2,-9 -4,-12zm-7 621c0,-13 3,-16 11,-8 0,5 -4,8 -11,8zm-4 15c0,-7 1,-13 4,-15 5,10 3,15 -4,15zm-8 -565c-3,0 -6,2 -8,6 -3,4 -3,7 0,10 5,-5 8,-11 8,-16zm-12 20c0,2 -2,8 -6,17 -4,10 -6,18 -6,26 13,-13 17,-28 12,-43zm-35 110c15,-8 23,-30 23,-67 -10,18 -18,41 -23,67zm0 15c-6,0 -8,3 -8,8l8 -8zm-8 24c-8,0 -12,7 -12,20 3,0 7,-7 12,-20zm82 157c21,-26 30,-50 28,-71l15 -11c0,-3 0,-7 -2,-12 -1,-5 -2,-9 -2,-12 11,-10 16,-17 16,-20 -5,-10 -8,-21 -8,-31 3,-3 7,-5 12,-6 5,-1 9,-2 12,-2 5,-21 12,-35 20,-43 0,-5 -2,-7 -6,-4 -4,3 -8,3 -10,0 0,-5 2,-17 8,-35 -11,5 -21,19 -30,41 -9,22 -15,35 -17,37l11 12c-5,5 -10,7 -15,4 -3,5 -7,15 -12,29 -5,15 -11,26 -16,34l-16 -8c3,8 4,16 4,23 0,8 -2,15 -6,20 -3,5 -9,8 -17,8 -8,29 -26,90 -55,182 -29,93 -46,167 -51,222 36,-86 65,-165 86,-235 8,0 13,-2 16,-4 2,-16 8,-34 18,-55 9,-21 13,-38 13,-51l-4 -4 -4 0c0,-11 3,-17 8,-20 0,8 2,12 4,12zm-169 573c-2,3 -4,7 -4,12 3,-3 4,-7 4,-12zm161 -789c-60,165 -116,355 -168,569 18,-52 37,-111 57,-176 19,-66 39,-137 60,-214 21,-77 38,-137 51,-179zm-180 864c0,-3 1,-5 4,-8 2,-5 2,-9 0,-12 -8,8 -9,15 -4,20zm90 -778c-52,160 -84,274 -94,342 10,-45 28,-105 53,-183 25,-77 41,-130 49,-159l-8 0zm-106 593c8,-10 16,-38 24,-82l-4 -4c0,8 -4,21 -12,39 -8,18 -11,34 -8,47zm4 -239l-12 59c19,-19 22,-38 12,-59zm-16 74c0,8 -2,18 -6,30 -3,12 -5,20 -5,25l7 -19c6,-13 7,-25 4,-36zm-8 479l0 -15c-5,7 -5,13 0,15zm-15 43c8,-23 10,-36 8,-39 0,3 -4,9 -10,20 -7,10 -6,17 2,19zm4 -427c-11,23 -13,43 -8,58 0,-7 1,-17 4,-29 2,-12 4,-22 4,-29zm-28 510c0,-5 2,-12 6,-22 4,-9 7,-16 10,-21 2,-5 2,-12 0,-20 -3,3 -5,10 -8,22 -3,11 -6,19 -12,21 3,3 4,7 4,12l0 8zm0 -373c0,3 -1,6 -4,10 -2,4 -4,7 -4,10 6,2 9,0 10,-6 1,-7 1,-11 -2,-14zm-12 47c-2,11 -2,16 0,16l0 -16zm-3 28c-3,5 -3,7 0,7l0 -7zm-4 376l0 -7c-3,5 -3,7 0,7zm-8 -333l0 12 0 -12zm23 47c45,-87 63,-161 55,-224 0,3 -2,5 -8,8 -5,3 -7,5 -7,8l0 27c-3,0 -4,-3 -2,-10 1,-6 0,-11 -2,-13 -6,15 -4,29 4,39 -6,5 -10,8 -12,8 0,2 1,5 4,8 2,2 2,5 0,8 -21,7 -24,22 -8,43 -16,5 -21,13 -16,23 5,0 8,2 8,4 0,5 -3,8 -8,8l-4 0c-5,11 -8,26 -8,45 0,20 -2,34 -7,41 -6,-2 -9,-10 -10,-23 -2,-13 -4,-21 -6,-24l-12 47c3,3 7,4 12,4 0,6 -2,10 -6,12 -4,3 -6,5 -6,8 3,3 4,8 4,16 0,7 1,13 4,15 8,0 14,-5 20,-15l-12 -12 4 -8c2,-3 5,-3 8,0l3 4c14,-18 16,-34 8,-47zm-27 106c-21,0 -30,9 -28,27 0,8 6,13 16,16 8,-26 12,-41 12,-43zm-39 235c28,-44 58,-136 90,-274 -26,44 -56,136 -90,274zm219 -400l-11 0c49,-199 85,-319 106,-361 -8,42 -49,223 -124,544 -75,320 -115,531 -120,634 0,5 3,5 8,0 3,-3 5,-5 6,-6 1,-2 3,-1 6,2 -11,26 -7,67 12,123 18,57 15,91 -8,104 -126,-5 -202,-46 -228,-121 21,-165 71,-390 149,-676 -8,6 -14,22 -19,49 -6,28 -15,44 -28,50 113,-804 352,-1556 719,-2258 83,-52 172,-18 267,102 0,6 -1,13 -2,22 -2,9 -2,15 -2,17 -53,66 -114,169 -185,309 -71,140 -116,228 -137,265 -110,293 -195,511 -256,655 -5,0 -6,-4 -3,-12 2,-7 2,-11 0,-11 -6,0 -10,5 -14,15 -4,11 -10,15 -18,12 -5,21 -5,37 0,47 0,3 3,3 8,0 5,-2 8,-1 8,4 -8,6 -17,19 -28,39 -10,21 -19,36 -27,44 2,2 4,6 4,11 0,6 2,10 8,12 -134,380 -212,670 -236,872 16,-34 60,-197 134,-487 0,10 4,13 11,8l0 -8z"/>
   </g>
   <g>
    <path class="fil0" d="M10130 1802c0,8 -5,17 -14,27 -9,11 -11,21 -6,32 26,-26 36,-47 28,-63 0,3 -3,4 -8,4zm-32 1182c-2,2 -5,2 -7,-2 -3,-4 -3,-8 0,-10 5,0 7,4 7,12zm-35 -990c-10,3 -16,8 -16,16 3,5 7,7 12,4 5,-16 14,-38 26,-67 12,-29 19,-47 21,-55 -18,3 -32,16 -41,40 -9,23 -10,44 -2,62zm-35 -192c5,3 10,2 14,-2 3,-4 4,-10 1,-18 14,-5 36,-30 67,-74 -47,36 -74,68 -82,94zm-32 12c3,-3 4,-5 4,-8l-4 4 0 4zm-43 86c26,-16 39,-42 39,-78 -26,31 -39,57 -39,78zm-27 817l0 -8c2,-3 2,-4 0,-4l0 12zm-4 -20c55,-332 99,-556 133,-671 -34,55 -63,154 -88,296 -25,143 -40,268 -45,375zm4 63c0,-18 -3,-28 -8,-28l0 16c0,8 2,12 8,12zm4 -1951c-24,5 -32,19 -24,43 21,-8 29,-22 24,-43zm-36 1028l12 -11c-5,0 -9,3 -12,11zm0 1029c-18,-65 -27,-148 -27,-247 2,31 9,78 19,141 0,23 3,59 8,106zm-11 -2132c5,13 0,20 -16,20 0,-8 1,-14 4,-18 2,-4 6,-4 12,-2zm-20 1143c8,-6 12,-12 12,-20 -3,0 -7,6 -12,20zm-8 -1206l4 -4c-3,0 -4,2 -4,4zm-8 1355c8,-8 11,-16 8,-24 -5,0 -8,4 -10,10 -1,7 0,11 2,14zm-15 -106c20,-8 26,-17 15,-28l-8 8c-5,8 -7,15 -7,20zm0 -793c7,0 10,-3 7,-8l-7 8zm7 -432c0,2 0,4 -2,4 -1,0 -2,1 -2,4 -2,0 -5,-3 -7,-8l11 0zm-11 314c2,0 5,-1 7,-2 3,-1 6,-2 8,-2 -5,-13 -11,-20 -19,-20 -3,3 -2,11 4,24zm-8 75c23,-40 51,-106 82,-201 -8,6 -16,6 -23,0 7,13 2,23 -16,28 -3,5 -1,9 4,12 2,2 4,5 4,7l-20 0c0,3 1,7 4,12 5,0 8,-1 8,-4 2,-2 5,-4 8,-4 -6,29 -15,53 -28,71 3,11 -1,24 -11,39 -11,16 -15,29 -12,40zm12 961c-11,-5 -16,-1 -16,12l8 -4c5,-2 8,-5 8,-8zm-28 -1272c-3,-7 0,-17 8,-27 8,-11 10,-20 8,-28 2,0 5,-1 8,-3 -6,34 -14,53 -24,58zm-12 40c-2,-6 0,-11 8,-16 5,10 3,16 -8,16zm-19 1323l27 -24c21,-16 34,-30 39,-43l-7 0c-8,0 -14,-3 -16,-8 -21,21 -36,46 -43,75zm0 -1190c-6,-10 -3,-16 7,-16 3,11 0,16 -7,16zm-4 169c5,-3 9,-6 11,-10 3,-4 2,-7 -3,-10 -6,6 -8,12 -8,20zm-12 31l16 -7c0,-6 -2,-10 -4,-12 -11,5 -15,12 -12,19zm-4 -145c-3,-10 1,-25 12,-43 2,0 4,1 4,4 -8,26 -13,39 -16,39zm-16 298l0 8 0 -8zm-11 -227c0,-5 6,-25 19,-59 3,5 -4,25 -19,59zm27 149l0 20c10,-11 22,-31 33,-61 12,-30 25,-51 38,-61l-12 -24c-8,8 -14,21 -18,40 -4,18 -8,31 -14,39 -7,2 -15,7 -23,14 -8,6 -14,9 -20,9 0,3 3,4 8,4 5,0 8,3 8,8 -3,0 -7,2 -12,4 -5,3 -10,5 -14,6 -3,1 -6,5 -7,10 -2,5 -2,10 -2,15 5,0 10,-3 15,-11 6,-8 12,-12 20,-12zm-47 -114l4 0 0 4 -4 0 0 -4zm-12 255c-3,0 -1,-4 4,-12l0 4c-3,3 -4,6 -4,8zm-23 -161c-3,-8 0,-14 7,-19 6,13 3,19 -7,19zm-4 978l165 -255c-50,57 -105,142 -165,255zm-8 -958c2,-3 4,-3 4,0 -8,29 -15,44 -20,47 -3,-5 -1,-14 6,-25 6,-12 10,-19 10,-22zm-28 235c0,8 3,10 8,4 -5,0 -8,-1 -8,-4zm122 750c0,-2 -1,-4 -2,-6 -1,-1 -2,-3 -2,-5 10,-16 14,-29 12,-40 -32,55 -76,138 -134,248 8,0 14,-6 18,-18 4,-12 11,-16 22,-14 7,-18 22,-45 43,-80 21,-36 35,-64 43,-85zm-90 -19c-11,8 -19,16 -24,25 -5,9 -10,21 -16,36 -5,14 -9,24 -11,29 28,-31 45,-61 51,-90zm-51 -267l-4 0 0 4 4 0 0 -4zm-20 404c10,-13 17,-27 20,-43 -16,23 -23,38 -20,43zm4 -926c-5,-6 -6,-12 -2,-20 4,-8 8,-12 14,-12 2,5 1,11 -4,18 -5,6 -8,11 -8,14zm-39 993c2,-3 4,-7 4,-12l-4 4c-3,3 -3,5 0,8zm31 -986c-8,53 -23,99 -47,138 -3,-18 13,-64 47,-138zm-59 158c5,0 8,1 8,3 -3,0 -5,2 -8,4l0 -7zm-8 47c-5,-3 -4,-8 4,-16 0,8 -1,13 -4,16zm-43 110c5,-37 17,-67 35,-91 -5,42 -17,72 -35,91zm-4 23c0,31 -8,54 -23,67 0,-32 8,-54 23,-67zm-31 94c-5,-5 -7,-10 -4,-15 2,-6 6,-8 12,-8 2,10 0,18 -8,23zm-39 149c-6,-28 0,-47 15,-54 0,31 -5,49 -15,54zm-12 20l4 0 4 4 -4 4 -4 -8zm-12 67c5,34 -1,61 -20,82 -2,-10 4,-38 20,-82zm-24 169l0 8 0 -8zm-15 -4c2,0 4,2 4,8l-8 0 0 -8 4 0zm-4 12c2,0 2,3 0,11 -5,-5 -5,-9 0,-11zm-4 19c2,16 -1,24 -12,24 0,-11 4,-19 12,-24zm-8 39l-4 4 0 4 -4 0 0 -4c0,-2 3,-4 8,-4zm118 -164c0,-3 -2,-6 -4,-8l-4 -4c-3,18 -9,45 -20,80 -10,36 -18,67 -23,94 -5,28 -7,55 -4,81 -45,107 -69,245 -75,412 24,-60 36,-125 36,-196 2,-8 9,-9 19,-4 -2,-3 -2,-11 0,-24 3,-13 -1,-21 -12,-23 21,-21 36,-59 44,-114 7,-55 17,-92 27,-110 -2,-8 -4,-20 -4,-35 11,-13 18,-25 24,-36 0,-2 -2,-4 -4,-4 -3,0 -4,-2 -4,-7 0,-3 1,-4 4,-2 2,1 5,0 8,-2 5,-8 6,-21 2,-40 -4,-18 -5,-31 -2,-39 2,-2 8,-1 15,4 -5,-10 -7,-17 -7,-20 -3,-2 -6,-3 -8,-3l-8 0zm-134 204l8 0c5,10 4,17 -4,19 -8,-8 -9,-14 -4,-19zm-35 165l-4 0 0 3 4 -3zm805 455c21,42 53,69 96,80 43,12 65,26 65,42 13,26 5,49 -24,70 -167,-2 -277,-136 -330,-400 -2,-275 57,-577 177,-907 -37,37 -55,63 -55,79 -2,2 -6,3 -12,1 -5,-1 -7,0 -7,2 -79,202 -120,426 -122,672l0 12 0 -12c-16,-220 2,-402 55,-546 -118,199 -190,334 -216,404 -34,53 -71,135 -110,248 -39,112 -71,191 -94,235 -47,66 -107,77 -179,34 -72,-43 -112,-91 -120,-144 71,-651 265,-1319 581,-2002 -102,262 -172,445 -212,548 -39,103 -91,262 -155,477 -64,214 -109,412 -135,593 0,2 1,2 4,0 2,-3 5,-3 8,0l0 19c-3,0 -7,-4 -12,-12 -3,3 -4,12 -4,28 3,5 6,8 12,8 -3,23 -11,58 -24,104 -13,46 -21,80 -23,102 -3,22 1,58 11,108 16,-68 38,-170 67,-306 29,-136 56,-257 81,-361 24,-105 51,-201 80,-287 3,-3 5,-2 6,2 1,4 3,6 6,6 2,-3 4,-7 6,-14 1,-6 2,-11 2,-14 0,-2 -3,-5 -8,-8 -5,-2 -7,-5 -4,-7 3,-6 8,-6 16,0 7,5 13,7 15,7 -28,74 -40,126 -35,157l-16 12c0,16 -4,37 -11,63 -8,26 -12,42 -12,47l-4 0c0,-8 -2,-12 -4,-12 0,6 -1,12 -2,18 -1,7 -2,11 -2,14 5,-3 10,-1 16,4 5,2 9,4 11,4 14,-21 29,-71 48,-150 13,-5 17,-16 13,-33 -4,-17 0,-28 10,-33l-12 -12 12 -35c21,-3 29,-17 24,-44 15,-15 18,-31 8,-47 23,-34 37,-79 43,-137 13,3 21,-2 23,-14 3,-12 -1,-20 -12,-25 19,-45 40,-79 63,-102 -8,-27 1,-64 26,-112 25,-49 38,-75 41,-81 -8,-5 -9,-17 -4,-37 5,-20 8,-31 8,-33 -5,10 -13,15 -24,15 -2,3 -2,9 0,18 3,9 2,15 -3,18 -6,-19 -11,-29 -16,-32 -8,5 -12,11 -12,16 0,5 2,12 6,20 4,7 6,14 6,19 -3,3 -5,2 -8,-4 -3,-5 -5,-8 -8,-8l0 20 -16 16c0,2 2,5 6,8 4,2 5,6 2,11 -21,3 -31,12 -31,28 0,5 3,8 10,8 6,0 9,1 9,4 -5,5 -14,26 -27,62l-4 0c8,29 1,57 -20,83 -2,-5 -2,-11 2,-18 4,-6 6,-11 6,-14 -18,8 -29,17 -31,28l19 20c-10,2 -13,13 -7,31 -11,3 -19,10 -26,24 -6,13 -14,21 -21,23 0,3 2,7 5,12 4,5 6,10 6,16l-15 31 -4 -4 0 -8c-6,5 -12,21 -20,47 3,0 5,-1 8,-4 2,-7 6,-11 12,-11 0,10 -4,24 -10,41 -7,17 -10,29 -10,37l-20 16 -19 0c42,-162 120,-386 233,-670 114,-283 182,-454 203,-512 0,-2 -2,-4 -6,-4 -4,0 -6,-1 -6,-4 0,-8 2,-21 8,-39 5,-18 4,-30 -4,-35 -42,42 -64,82 -67,121 10,0 24,-7 39,-23 0,-3 -2,-5 -6,-6 -4,-1 -6,-3 -6,-6 3,0 5,-2 6,-6 2,-4 5,-6 10,-6 5,16 4,36 -4,61 -8,25 -18,37 -31,37l-12 -23 0 -24c-3,0 -4,3 -4,8 -5,5 -10,9 -16,12 6,-13 16,-54 32,-124 16,-69 34,-118 55,-147 118,-18 201,20 251,114 0,52 -18,116 -55,190 -37,75 -58,123 -63,144 -39,39 -56,79 -51,121 -50,71 -88,161 -114,271 -2,3 -6,5 -11,8 -6,3 -8,5 -8,8 0,3 2,6 8,12 5,2 6,6 4,11 -21,14 -39,43 -53,89 -15,46 -26,74 -34,84 3,3 7,4 12,4l8 4c0,13 -7,24 -20,31l0 -19c-8,5 -13,14 -16,25 -2,12 -1,21 4,26 -10,3 -17,7 -19,14 -3,6 -5,16 -6,29 -2,13 -3,22 -6,28 0,2 1,2 4,0 2,-3 4,-3 4,0l-24 27c11,5 17,12 20,20 -52,28 -72,77 -59,145 -24,42 -44,89 -61,141 -17,53 -33,115 -47,189 -14,73 -27,127 -37,161 60,-102 101,-172 123,-208 23,-37 61,-95 116,-175 55,-80 109,-147 161,-200 53,-54 111,-104 177,-151 8,-3 16,-4 23,-2 8,1 16,0 24,-2 16,5 39,10 71,15 31,6 53,9 66,12 32,37 49,71 51,102 -73,152 -164,418 -274,797 -29,149 -33,310 -12,483z"/>
   </g>
   <path class="fil0" d="M11111 2112c5,-2 8,-8 8,-18 0,-9 -3,-15 -8,-17l0 35zm-8 -239c0,-6 0,-11 -2,-18 -1,-7 -1,-12 -1,-18l0 -15c0,-6 -2,-10 -4,-12 0,39 2,60 7,63zm-3 82c5,-8 3,-18 -4,-31 -6,13 -4,23 4,31zm-20 -208c5,5 8,14 8,27 0,14 1,21 4,24 0,-3 -1,-8 -2,-18 -2,-9 -3,-16 -4,-21 -2,-5 -4,-9 -6,-12zm-16 428l-4 0c0,8 -3,20 -10,35 -6,16 -8,29 -5,40 13,-40 19,-65 19,-75zm-47 216c0,-3 2,-5 6,-8 4,-3 5,-5 2,-8l-8 0c-3,8 -3,13 0,16zm-8 -71c21,-13 32,-35 32,-67l-32 67zm-12 24c3,0 6,-3 10,-8 4,-5 5,-9 2,-12 -8,8 -12,15 -12,20zm0 0c-2,0 -3,2 -3,8 2,0 3,-3 3,-8zm-3 19c-3,-2 -3,-4 0,-6 2,-1 2,-3 0,-5 -6,7 -6,11 0,11zm-40 71l4 -8c5,-8 7,-14 4,-19 0,2 -2,7 -6,13 -4,7 -4,11 -2,14zm-412 322c160,-60 281,-179 365,-357 84,-178 127,-376 130,-593 -6,-50 -19,-89 -40,-118 -21,-29 -51,-29 -90,0 3,8 2,16 -2,26 -4,9 -6,16 -6,21 -78,115 -140,213 -184,293 -45,80 -87,186 -126,320 -39,133 -55,269 -47,408zm624 -499c-2,0 -5,-3 -8,-9 -2,-7 -6,-12 -11,-14 21,-42 23,-81 7,-118 19,-18 23,-42 12,-71 0,-2 2,-4 4,-4 5,3 9,3 12,0 0,-20 -5,-32 -16,-35 11,-120 3,-205 -23,-255 -3,3 -6,8 -8,18 -3,9 -5,15 -8,17 10,11 20,16 27,16 -5,304 -54,521 -149,652 -2,5 -1,9 4,11 3,0 4,2 4,4 -18,16 -44,50 -78,102 -34,53 -66,88 -95,106 0,3 3,5 8,6 5,2 9,4 12,6l24 -23 11 11c8,-2 17,-10 26,-23 9,-13 20,-20 33,-20 0,-5 4,-15 12,-31l16 8c5,-24 23,-55 53,-93 30,-37 45,-70 45,-96 10,-10 22,-37 35,-80 13,-43 30,-70 51,-81 -39,168 -141,343 -306,526 0,6 1,8 4,8 3,3 4,6 4,8 -58,76 -145,116 -263,122 -29,-11 -64,-30 -106,-59 -42,-29 -71,-47 -87,-55 -13,-24 -19,-38 -19,-43 -60,-53 -89,-123 -86,-212 10,-330 134,-657 372,-982 21,-15 51,-23 89,-23 38,0 67,8 88,23 113,-23 209,19 291,126 2,3 5,4 7,4 6,2 10,4 12,4 24,76 36,167 38,273 1,106 -12,198 -38,276z"/>
   <path class="fil1" d="M1277 5353c4,-7 11,-11 21,-11 0,7 -7,11 -21,11zm-67 93c-3,-18 14,-33 52,-47 -14,28 -31,43 -52,47zm36 -57c-3,0 -8,4 -15,13 -7,8 -14,13 -21,13 -7,-7 -4,-15 8,-24 12,-8 21,-9 28,-2zm-98 41c17,0 22,-8 15,-26 -10,0 -15,9 -15,26zm-21 119c11,-3 24,-14 42,-31 17,-17 32,-29 46,-36 -7,14 -15,27 -26,41 -10,14 -22,28 -36,41 -14,14 -24,25 -31,32 -14,-7 -21,-14 -21,-21 7,-7 16,-9 26,-5 4,0 5,-3 3,-8 -2,-5 -3,-10 -3,-13zm-15 -62c-4,-7 -7,-9 -11,-8 -3,2 -8,6 -15,13 -7,7 -12,11 -16,11 7,0 14,-3 21,-8 7,-5 14,-8 21,-8zm-47 134c4,-7 9,-12 16,-15 7,-4 10,-7 10,-10 4,3 3,10 -2,20 -6,11 -8,17 -8,21 -4,0 -7,-2 -11,-5 0,-7 -1,-11 -5,-11zm0 -108c-3,0 -7,2 -10,5 7,0 10,-2 10,-5zm-20 134c0,-10 5,-15 15,-15 4,3 5,8 5,15l-20 0zm-16 21c11,-4 17,-4 21,0 0,7 -4,10 -10,10 -7,0 -11,-3 -11,-10zm-20 -109l5 -5c-4,0 -5,2 -5,5zm-21 -15c-7,0 -11,-5 -11,-16l11 0 0 16zm-42 77l16 -15c-21,0 -26,5 -16,15zm-20 16c7,0 10,-4 10,-10 -7,0 -10,3 -10,10zm-631 -868c-3,3 -3,7 0,10 4,4 6,7 6,10 41,-58 97,-142 168,-250 70,-109 116,-178 136,-209 -82,86 -186,232 -310,439zm-144 367c14,-45 39,-105 75,-179 36,-74 61,-130 75,-168 -97,118 -152,233 -166,347l16 0zm-21 41c7,-17 7,-29 0,-36l0 36zm0 -36l5 -5 -5 0 0 5zm-46 150c3,-14 9,-31 18,-52 8,-21 14,-36 18,-47 -4,0 -5,-1 -5,-5l-6 0c-17,59 -25,93 -25,104zm-21 57c17,-18 21,-35 10,-52 -10,31 -14,48 -10,52zm-5 36l5 -6 0 -15 -10 10c0,7 1,11 5,11zm1085 -26c24,-14 63,-47 116,-101 53,-53 101,-89 142,-106 0,17 -10,35 -31,54 -20,19 -29,37 -26,55 -86,69 -141,132 -165,191 -14,3 -29,-4 -47,-21 0,4 -1,15 -5,34 -3,19 -7,32 -13,39 -5,6 -13,10 -23,10 -31,58 -115,153 -253,284 31,3 100,-53 207,-170 106,-118 172,-178 196,-181 -62,155 -167,310 -315,465 -148,155 -302,230 -460,227 -7,-3 -24,-7 -52,-10 -27,-4 -43,-11 -46,-21 -59,-14 -117,-57 -176,-129 -72,-45 -125,-119 -157,-222 -33,-104 -43,-216 -29,-336 131,-555 372,-992 723,-1313 87,-10 165,0 236,29 70,29 123,73 157,132 0,7 -2,10 -5,10 0,3 2,5 5,5l5 10c100,176 92,316 -26,419 -72,65 -137,86 -196,62 -45,-21 -48,-64 -10,-129 69,-124 81,-209 36,-253 -134,106 -239,236 -315,387l13 0c5,0 9,2 13,5 -7,11 -16,11 -26,0 -4,4 -22,32 -54,86 -33,53 -52,85 -57,95 -5,11 -23,41 -52,91 -29,50 -47,83 -54,100 -7,18 -21,49 -42,96 -20,46 -34,83 -41,108 -7,26 -16,62 -28,106 -12,45 -19,85 -21,119 -2,35 -3,74 -3,119 0,45 2,90 6,134 34,7 46,24 36,52 296,0 575,-177 837,-532z"/>
   <path class="fil1" d="M2269 4934c7,-3 10,-11 10,-23 0,-12 -3,-20 -10,-23l0 46zm-10 -315c0,-7 -1,-15 -3,-23 -2,-9 -2,-17 -2,-24l0 -20c0,-7 -2,-12 -6,-16 0,52 4,80 11,83zm-5 108c7,-10 5,-24 -6,-41 -6,17 -5,31 6,41zm-26 -273c7,7 10,19 10,36 0,17 2,27 5,31 0,-4 -1,-11 -2,-23 -2,-12 -4,-22 -5,-29 -2,-7 -5,-12 -8,-15zm-21 563l-5 0c0,10 -4,26 -13,46 -9,21 -11,38 -8,52 18,-52 26,-84 26,-98zm-62 284c0,-3 3,-7 8,-10 5,-4 6,-7 2,-11l-10 0c-3,11 -3,18 0,21zm-10 -93c27,-17 41,-47 41,-88l-41 88zm-16 31c4,0 8,-3 13,-10 5,-7 6,-12 3,-16 -11,10 -16,19 -16,26zm0 0c-3,0 -5,3 -5,10 4,0 5,-3 5,-10zm-5 26c-3,-4 -3,-6 0,-8 4,-2 4,-4 0,-8 -7,11 -7,16 0,16zm-52 93l6 -11c6,-10 8,-18 5,-25 0,3 -3,9 -8,18 -5,8 -6,14 -3,18zm-542 424c210,-80 370,-236 480,-471 111,-234 168,-494 171,-780 -7,-65 -24,-117 -52,-155 -27,-38 -67,-38 -119,0 4,10 3,22 -2,34 -5,12 -8,21 -8,28 -103,152 -184,280 -243,385 -58,105 -113,245 -165,421 -52,176 -72,355 -62,538zm822 -657c-4,0 -7,-4 -11,-13 -3,-8 -8,-14 -15,-18 27,-55 31,-106 10,-155 24,-24 29,-55 16,-93 0,-3 1,-5 5,-5 7,4 12,4 15,0 0,-27 -7,-43 -20,-46 13,-159 3,-271 -31,-336 -4,3 -7,11 -11,23 -3,12 -7,20 -10,23 14,14 26,21 36,21 -7,400 -72,685 -196,858 -4,7 -2,12 5,15 3,0 5,2 5,5 -24,21 -59,66 -103,135 -45,69 -86,115 -124,139 0,4 3,6 10,8 7,2 12,4 15,8l31 -31 16 15c10,-3 21,-14 34,-31 12,-17 26,-26 43,-26 0,-7 6,-20 16,-41l21 10c7,-31 30,-71 69,-121 40,-50 60,-92 60,-127 14,-13 29,-49 46,-106 18,-56 40,-92 68,-106 -52,221 -187,452 -404,693 0,7 2,10 6,10 3,4 5,7 5,11 -76,99 -191,153 -346,160 -38,-14 -85,-40 -140,-78 -55,-38 -93,-62 -114,-72 -17,-31 -25,-50 -25,-57 -80,-69 -117,-162 -114,-279 14,-434 177,-865 491,-1292 27,-20 66,-31 116,-31 50,0 89,11 116,31 148,-31 276,24 383,166 3,3 7,5 10,5 7,3 12,5 16,5 31,100 47,220 49,359 1,140 -15,261 -49,364z"/>
   <path class="fil1" d="M3556 5833c-4,4 -5,11 -3,21 2,10 6,17 13,21l0 -21c0,-7 -1,-12 -3,-16 -1,-3 -4,-5 -7,-5zm-5 -20c0,6 1,10 5,10 0,-4 -2,-7 -5,-10zm-16 -68c7,25 14,37 21,37 10,-18 3,-30 -21,-37zm-46 -1167l-6 0 0 5 6 0 0 -5zm-11 10c0,7 -2,14 -5,21 -3,7 -5,12 -5,15l21 0c10,-24 6,-36 -11,-36zm-15 57c0,3 -2,8 -5,13 -4,5 -4,11 0,18l15 0c-3,-4 -5,-10 -5,-18 0,-9 -2,-13 -5,-13zm5 165c24,-31 46,-95 67,-191 21,-96 33,-148 36,-155 -17,21 -35,63 -54,127 -19,63 -42,104 -70,121l36 0c0,14 -3,21 -10,21 -3,0 -8,-1 -13,-3 -5,-2 -9,-3 -13,-3 -7,7 -7,19 0,37 4,0 8,1 13,2 5,2 10,5 13,8 0,3 -2,9 -5,15 -4,7 -4,14 0,21zm-10 160c17,-75 22,-124 15,-144 -7,3 -11,11 -13,23 -2,12 1,21 8,28 -4,0 -6,3 -8,8 -2,5 -6,8 -13,8 -7,-14 -7,-32 0,-54 7,-23 9,-41 5,-55l-5 -5 -10 0c0,10 -1,24 -3,41 -1,18 -2,32 -2,44 0,12 1,25 5,39 3,14 8,24 15,31 0,7 -3,10 -10,10 -10,7 -15,13 -15,16 3,0 5,3 5,10 3,0 7,1 10,3 3,2 9,1 16,-3zm-57 -403c10,0 15,-1 15,-5 -10,-7 -15,-5 -15,5zm-130 145l6 -5 0 -11c-4,0 -7,2 -11,6 -10,7 -8,10 5,10zm-67 98c14,-14 31,-38 52,-72 -24,14 -41,38 -52,72zm0 0c-17,7 -29,10 -36,10 -10,28 -33,67 -70,117 -36,50 -61,90 -75,121 18,-17 78,-100 181,-248zm-201 284c14,0 20,-7 20,-20 -3,0 -6,-2 -7,-6 -2,-3 -5,-5 -8,-5 -3,7 -5,18 -5,31zm-104 171c45,-38 78,-93 99,-166 -14,11 -26,26 -37,44 -10,19 -21,42 -33,68 -12,25 -22,44 -29,54zm-15 31c3,-11 3,-16 0,-16 -10,11 -10,16 0,16zm-15 21l5 -6c3,-3 5,-7 5,-10 -4,-3 -7,-5 -10,-5 -4,3 -6,8 -6,13 0,5 2,8 6,8zm-16 25c7,4 11,1 13,-7 2,-9 -1,-13 -8,-13l-5 5 0 15zm-36 62c17,-3 26,-20 26,-51 -7,3 -12,12 -16,25 -3,14 -7,23 -10,26zm-5 -1064l0 10 -5 5 10 0c7,-10 5,-15 -5,-15zm-150 806c7,3 12,4 15,3 4,-2 4,-6 0,-13l-15 0 0 10zm108 -341c4,-14 11,-40 24,-78 12,-37 18,-70 18,-98 -4,0 -7,-1 -11,-5l0 -5c-3,7 -10,24 -20,52 0,3 2,7 7,10 6,3 8,7 8,10 -7,14 -17,21 -31,21 -69,234 -105,360 -108,377 7,4 10,2 10,-5l5 -10c7,-4 12,-5 16,-3 3,2 6,3 10,3 0,-4 1,-8 3,-13 1,-5 2,-11 2,-18 0,-4 -3,-6 -10,-8 -7,-2 -11,-4 -11,-8 0,-3 6,-7 19,-10 12,-4 16,-12 12,-26 -10,0 -15,-2 -15,-5 0,-4 1,-6 3,-8 1,-2 2,-4 2,-8 0,-3 5,-5 16,-5 0,-3 0,-8 2,-13 2,-5 3,-11 3,-18l-16 -15c0,-7 5,-11 16,-11 10,0 15,-1 15,-5 14,-21 16,-50 5,-88 4,-3 7,-5 11,-5 7,-3 12,-5 15,-5zm-119 325c7,-3 9,-10 6,-20l0 10c-4,4 -6,7 -6,10zm-10 37c10,0 16,-6 16,-16l-11 0c0,7 -1,12 -5,16zm10 -429c4,-11 14,-16 31,-16 -6,45 -15,74 -25,88 -4,0 -11,-5 -21,-15 0,-24 9,-37 26,-37l-11 -20zm-31 134c11,-21 21,-29 31,-26 0,18 -1,28 -5,31 -10,4 -19,2 -26,-5zm-20 47c24,-24 36,-26 36,-6l-26 16 -10 -10zm-42 279c4,0 7,1 11,5 0,3 1,7 5,10l-21 0 0 -10 5 -5zm11 -52c10,7 12,19 5,36l-21 0c0,-14 5,-26 16,-36zm-16 88l11 0 0 15c-4,0 -7,-1 -11,-5 -3,-3 -3,-7 0,-10zm-10 108l5 0 0 11 -5 0 0 -11zm5 -294c-10,41 -12,65 -5,72 21,-31 22,-55 5,-72zm-5 274c-4,-4 -5,-9 -5,-16 0,-7 1,-13 2,-18 2,-5 6,-8 13,-8 7,28 4,42 -10,42zm-10 87c-4,-6 -3,-12 2,-18 5,-5 8,-9 8,-13 3,4 4,11 3,21 -2,10 -7,14 -13,10zm20 -67c21,-131 65,-316 132,-555 67,-239 104,-375 111,-406 -21,38 -43,96 -67,173 -24,78 -43,130 -57,158 0,-3 -3,-7 -10,-10 -7,-4 -11,-9 -11,-16 28,-86 43,-139 47,-160 -52,86 -93,227 -124,424 3,0 8,-3 13,-8 5,-5 9,-6 13,-3 10,49 3,78 -21,88 -3,-7 -3,-21 0,-41 4,-21 0,-31 -10,-31 -11,21 -16,48 -16,82 4,-6 9,-10 16,-10 7,0 12,4 15,10l0 31c0,18 -1,33 -5,47 -3,14 -10,24 -21,31l-20 -16c-21,135 -30,211 -26,228 -38,124 -50,296 -36,517 13,6 20,1 20,-16 0,-3 -3,-7 -10,-10 -7,-4 -10,-7 -10,-11 7,-3 11,-13 13,-28 1,-16 6,-25 13,-28 -11,-4 -14,-14 -11,-31 4,-18 4,-33 0,-47 11,-3 17,-5 21,-5 -4,-10 -2,-28 5,-52l-5 0 0 -10c7,0 10,2 10,5 14,-38 9,-67 -15,-88 24,-24 39,-95 46,-212zm1313 -1152c72,90 100,167 82,233 -58,86 -119,279 -183,578 -64,300 -93,590 -88,871 5,281 65,426 178,437 49,41 50,72 6,93 -28,0 -56,3 -83,10 -110,-28 -199,-152 -266,-372 -67,-221 -104,-449 -109,-685 -5,-236 -1,-443 13,-622 0,-18 4,-43 11,-78 -11,14 -22,36 -34,67 -12,31 -28,61 -47,91 -19,29 -43,57 -75,85 -20,41 -61,103 -121,183 -60,81 -97,132 -111,153 -7,0 -10,3 -10,10l0 16 -11 0 0 -11 5 -5c-58,59 -113,155 -165,290 52,-66 140,-195 266,-388 126,-193 223,-331 292,-413 -20,34 -77,120 -168,258 -91,138 -159,245 -204,320 -45,76 -95,183 -152,321 -57,138 -98,270 -122,398 -13,20 -33,32 -59,36 -26,3 -49,-5 -70,-26 -7,0 -12,3 -15,10l-11 0c-10,-10 -25,-20 -44,-31 -19,-10 -32,-19 -38,-26 -4,0 -9,5 -16,13 -7,9 -14,13 -21,13 -34,-72 -53,-154 -56,-245 -4,-91 2,-196 18,-313 15,-117 23,-196 23,-237 55,-266 88,-409 98,-429 76,-286 160,-543 253,-770 18,-11 62,-16 135,-16 7,4 30,11 69,24 40,12 67,23 81,33 6,17 22,41 46,72 24,31 40,61 47,88 -18,38 -100,222 -249,553 -10,41 -36,120 -77,235 -41,116 -67,210 -77,282 62,-79 98,-140 108,-181 286,-482 503,-785 651,-909 48,-55 148,-61 300,-16z"/>
   <path class="fil1" d="M7023 3529l0 -88c-31,0 -52,5 -62,15 41,14 62,38 62,73zm-522 -238c0,4 -4,5 -11,5 0,-10 4,-12 11,-5zm-217 129c7,0 12,-1 15,-5 -10,0 -15,2 -15,5zm-786 -103c0,3 -3,5 -10,5 0,-3 4,-5 10,-5zm-465 -5l-15 31c10,3 20,3 28,0 9,-4 17,-5 24,-5 3,0 6,2 7,7 2,5 5,6 8,3 7,3 10,2 10,-5 4,-4 7,-5 11,-5 3,0 6,2 8,7 1,5 4,6 7,3 17,-7 26,-12 26,-16 38,7 320,0 847,-20l16 -16c3,0 10,2 21,5 10,0 17,2 20,6l-10 0c3,6 14,10 31,10 0,-4 -1,-7 -3,-10 -1,-4 -2,-7 -2,-11 20,-20 39,-17 57,11 10,-11 27,-13 51,-8 24,5 40,2 47,-8 7,10 24,16 51,16 0,-14 11,-21 32,-21 6,10 18,15 36,15 17,0 29,-3 36,-10 3,10 13,14 28,10 16,-3 25,-8 29,-15l15 15c7,-6 12,-10 16,-10 3,7 24,10 62,10 10,-10 19,-15 26,-15l10 15c7,7 14,9 21,6l0 -11c0,-7 1,-10 5,-10l20 0c11,3 16,10 16,21 31,0 48,-4 52,-11 168,21 261,33 279,36 -190,-82 -505,-103 -946,-62 -90,-10 -183,-13 -282,-7 -98,5 -228,14 -390,28 -162,14 -263,21 -305,21zm-15 2165c-4,0 -7,1 -10,5 -4,3 -4,7 0,10l5 -5c3,-3 5,-7 5,-10zm1881 -2062c20,-14 49,-13 85,3 36,15 63,42 80,80 -10,-38 -22,-66 -36,-83 -14,-17 -25,-27 -34,-31 -8,-3 -13,-7 -13,-10 -58,-28 -122,-44 -191,-49 -69,-6 -145,-6 -230,0 -84,5 -150,6 -199,2 -27,14 -75,18 -142,13 -67,-5 -113,-4 -137,3 -3,-4 -4,-7 -2,-11 1,-3 1,-5 -3,-5 -7,0 -58,4 -152,11 -95,7 -177,12 -246,15 -69,4 -120,2 -155,-5 -3,0 -4,-3 -2,-10 1,-7 -1,-11 -8,-11 -17,-3 -55,-2 -114,3 -58,5 -98,8 -119,8l-5 5c-3,7 -8,12 -15,15 -28,31 -62,39 -104,23 -41,-15 -81,-22 -121,-20 -40,2 -61,25 -65,70 562,-45 960,-61 1194,-47 327,-41 558,-33 692,26 4,0 5,-3 3,-8 -2,-5 -1,-9 3,-13 13,7 24,11 31,11l0 5c0,7 1,10 5,10zm-1933 2201c31,-38 64,-89 98,-155 -7,14 -21,38 -44,73 -22,34 -40,62 -54,82zm21 -103c-21,17 -40,45 -57,83 3,0 22,-28 57,-83zm-67 176l10 -21 -15 15c0,4 1,6 5,6zm5 -83c-14,0 -17,8 -10,26 0,-4 2,-8 7,-13 5,-5 6,-10 3,-13zm-21 98c4,-7 4,-10 0,-10 -3,7 -3,10 0,10zm16 -15l-26 31c10,3 20,0 28,-11 9,-10 11,-20 8,-31 -3,-3 -5,-1 -5,5l-5 6zm-16 -47c-10,10 -14,17 -10,21 7,3 11,1 13,-5 2,-7 1,-13 -3,-16zm-10 83l0 -5 -5 0 5 5zm-26 -36c10,-7 16,-14 16,-21 -4,0 -9,7 -16,21zm0 0c-3,3 -5,10 -5,20 3,0 5,-7 5,-20zm-26 41c-7,3 -10,9 -10,15 0,-3 2,-5 5,-5 3,-3 5,-7 5,-10zm52 -5l-47 67c0,-7 -1,-10 -5,-10 -10,3 -19,13 -26,31l11 0 10 0 -21 25c7,-3 14,-12 21,-25 7,-7 10,-14 10,-21 4,3 7,5 11,5 31,-31 43,-55 36,-72zm-134 191l56 -78 -87 88c6,4 12,3 18,-2 5,-6 9,-8 13,-8zm0 0c-7,3 -23,36 -47,98l31 -15c-7,-18 -9,-29 -8,-34 2,-5 6,-13 13,-23 7,-11 11,-19 11,-26zm-68 119c4,3 9,-2 16,-16l5 -5c-14,0 -21,7 -21,21zm-31 67c0,-35 -8,-35 -25,0l25 0zm-51 -10c-11,-7 -20,-11 -29,-11 -8,0 -16,3 -23,8 -7,5 -10,13 -10,23l62 -20zm-176 -2072c3,-4 5,-9 5,-16l-5 0 0 16zm-5 -682c58,17 120,15 186,-6 -117,0 -179,2 -186,6zm0 831c3,-3 5,-6 5,-10 3,-7 5,-12 5,-15 -7,0 -11,2 -13,7 -1,6 -1,12 3,18zm-21 -108c14,0 21,-7 21,-21 0,-7 -2,-10 -5,-10 0,7 -2,12 -5,15 -7,7 -11,13 -11,16zm0 165c0,-3 3,-11 8,-23 5,-12 6,-21 3,-28 0,7 -3,15 -8,25 -5,11 -6,19 -3,26zm-10 176c7,0 11,-4 13,-13 1,-8 1,-15 -3,-18 0,3 -2,8 -8,13 -5,5 -6,11 -2,18zm-5 -274c7,-7 8,-12 5,-15l-5 5c-4,3 -4,7 0,10zm0 326l0 -21c-4,-3 -5,-2 -5,5 0,7 1,12 5,16zm-26 -269c10,0 15,-3 15,-10 -10,-4 -15,0 -15,10zm31 -847c-21,0 -33,1 -36,5 24,14 36,12 36,-5zm-36 1219c0,-10 -2,-16 -5,-16l0 11c0,3 1,5 5,5zm-5 -331c13,0 17,-5 10,-15l-10 0 0 5c-4,3 -4,7 0,10zm-11 171c7,0 11,-4 11,-11 0,-6 -2,-12 -6,-15 0,3 -1,7 -2,10 -2,4 -3,9 -3,16zm16 -166c-11,0 -18,7 -21,19 -3,12 -2,21 5,28l11 -16c6,-10 8,-20 5,-31zm-26 404c3,-4 3,-6 0,-6 -4,4 -4,6 0,6zm-5 -176c3,-4 5,-9 5,-16 3,-3 5,-7 5,-10 -7,0 -10,9 -10,26zm-11 -124c7,-4 13,-11 18,-23 6,-12 5,-20 -2,-24 -14,28 -19,43 -16,47zm0 20l0 -20c4,-4 5,-7 3,-11 -2,-3 -4,-5 -8,-5 0,24 2,36 5,36zm6 -51c6,-4 10,-2 10,5 0,14 -7,26 -21,36 -3,7 -5,7 -5,0l16 -52 0 11zm-37 299c7,-3 11,-11 13,-23 2,-12 1,-21 -2,-28 -7,27 -11,45 -11,51zm6 -196c-11,21 -16,35 -16,41 7,0 13,-5 18,-15 5,-10 4,-19 -2,-26zm-31 103c10,0 15,-6 15,-20 -10,0 -15,7 -15,20zm-26 93c10,0 19,-17 26,-51 -7,0 -13,3 -16,10 -3,7 -5,15 -5,23 0,9 -2,15 -5,18zm5 176c3,-7 2,-10 -5,-10 -4,7 -2,10 5,10zm-10 -124l0 -10c-4,3 -4,7 0,10zm-26 72c20,-27 27,-49 20,-67 -27,28 -34,50 -20,67zm-11 212l0 -20c0,3 -1,7 -2,13 -2,5 -1,7 2,7zm-10 31c3,0 5,-1 5,-5l0 -5c-3,-3 -5,0 -5,10zm10 -196c7,-14 11,-22 11,-26 -14,7 -24,26 -29,57 -5,31 -9,48 -13,52 28,-38 38,-66 31,-83zm-26 625c7,0 11,-4 11,-13 0,-8 -4,-13 -11,-13 -6,0 -6,9 0,26zm-5 -517c-10,11 -10,18 0,21 4,-3 5,-8 5,-13 0,-5 -1,-8 -5,-8zm-31 693c11,-31 14,-60 11,-88 -7,14 -11,43 -11,88zm26 -2222l-18 0c-9,0 -13,2 -13,5 21,0 31,-1 31,-5zm-31 1648c4,0 10,-5 21,-15 0,-11 -4,-19 -11,-26 0,3 -2,10 -7,18 -5,9 -6,16 -3,23zm-10 36c-7,25 -7,38 0,42l0 -42zm-16 78c4,-7 6,-16 6,-26l0 10c0,7 -2,13 -6,16zm0 233c0,-7 -1,-11 -5,-11 0,4 2,7 5,11zm-5 408c4,-4 6,-12 8,-26 2,-14 1,-24 -3,-31 -10,27 -12,46 -5,57zm-5 108c0,-7 -2,-10 -5,-10l0 10c0,4 2,4 5,0zm-5 47l5 -5c0,-7 -2,-11 -5,-11 -4,11 -4,16 0,16zm10 -775c-17,24 -20,44 -10,62 10,-31 14,-52 10,-62zm-51 263c13,-14 13,-22 0,-26l0 11c-4,7 -4,12 0,15zm-42 300c4,-10 4,-16 0,-16l0 16zm-77 -2263c0,-7 2,-11 7,-11 6,0 12,1 18,3 7,2 14,3 21,3 -3,6 -11,11 -23,12 -12,2 -20,0 -23,-7zm-16 15c14,0 19,5 16,16 -11,0 -16,-5 -16,-16zm-46 -5c-4,-10 0,-16 10,-18 10,-2 17,1 21,8 0,7 -6,10 -16,10l-15 0zm697 -41c11,0 16,-2 16,-5l0 -11c-21,-3 -48,-4 -80,-2 -33,1 -58,2 -75,2 -4,4 -5,12 -5,26 -7,-3 -13,-3 -16,0 -7,4 -12,5 -15,5 -4,-3 -6,-7 -6,-10l-5 -10c-24,0 -67,3 -129,10 0,3 3,5 10,5 7,0 11,2 11,5 -4,7 -9,9 -16,5 -7,-3 -10,-8 -10,-15 -21,3 -55,2 -104,-3 -48,-5 -79,-4 -92,3 0,3 3,9 10,15 10,18 10,30 0,37 -31,-7 -48,-9 -52,-6 7,-3 11,-19 11,-46 -142,-7 -252,10 -331,52 65,10 140,16 225,18 84,1 152,1 204,-3 51,-3 130,-9 235,-18 105,-9 173,-15 204,-18l10 -16c11,-6 11,-13 0,-20zm-682 -16c-58,-24 -126,-29 -201,-15 82,14 149,19 201,15zm3204 21l36 129c0,48 -19,72 -57,72 -3,4 -12,2 -26,-5 -14,-7 -20,-15 -20,-26 -4,-3 -11,-15 -21,-36 -4,-7 -7,-12 -10,-15 -4,-4 -9,-11 -16,-21 -14,-21 -74,-34 -181,-41 -107,-7 -250,-8 -431,-3 -181,5 -348,12 -501,21 -154,8 -332,19 -535,31 -204,12 -334,20 -393,23 -72,155 -162,393 -269,713 -10,21 -19,35 -25,41 -4,4 -7,21 -11,52 -58,152 -124,377 -196,677 -79,227 -141,529 -186,904 3,21 4,38 2,52 -1,14 -1,24 0,31 2,7 6,14 11,23 5,9 14,18 28,29 52,-11 91,-24 116,-39 26,-16 56,-42 91,-78 34,-36 69,-66 103,-90 52,-76 146,-190 282,-341 136,-152 235,-283 297,-393 -7,52 -24,100 -52,145 -27,45 -46,86 -57,124 -13,-4 -24,2 -31,18 -7,15 -8,30 -5,44 17,-14 37,-41 60,-80 22,-40 44,-67 64,-80 -7,10 -14,26 -23,49 -9,22 -17,42 -26,59 -8,17 -18,33 -28,47l77 -98c-14,37 -70,155 -168,351 -98,196 -157,306 -178,331 0,6 -3,15 -10,25 -7,11 -14,20 -21,29 -7,8 -9,14 -5,18 -10,21 -31,43 -62,67 -31,24 -50,52 -57,83 -172,144 -325,160 -460,46 -41,-27 -82,-58 -124,-93 -96,-151 -139,-305 -129,-460 41,-399 150,-883 326,-1452 17,-62 39,-124 67,-186 17,-65 75,-246 175,-542 -764,76 -1195,64 -1291,-36 -49,-35 -80,-77 -96,-127 -15,-50 -9,-97 18,-142 7,-10 26,-14 57,-10 24,20 43,36 57,46 113,24 238,38 374,42 137,3 251,1 344,-6 93,-6 212,-17 357,-31 144,-13 249,-22 315,-25 10,-7 22,-30 36,-68 -4,-3 -9,-2 -16,3 -7,5 -13,6 -20,3l15 -47c11,-31 21,-62 31,-93l16 -41c0,-11 2,-18 7,-24 6,-5 11,-9 16,-12 5,-4 9,-7 13,-11 0,-7 -4,-18 -10,-33 -7,-16 -7,-25 0,-29 6,0 24,9 51,26 7,-7 13,-20 18,-39 5,-19 10,-32 13,-38 -10,-4 -18,-3 -23,2 -5,5 -11,8 -18,8 -4,-21 9,-51 39,-91 29,-39 42,-74 38,-106 31,-65 66,-120 104,-165 93,-7 189,47 289,160 10,66 -17,169 -83,310 -65,142 -100,229 -103,264 86,0 148,-5 186,-16 7,0 220,-6 641,-18 420,-12 704,-14 852,-7 197,10 314,75 352,196z"/>
   <path class="fil1" d="M5901 5435c0,-10 -3,-13 -10,-10l0 10 10 0zm-98 155c4,-3 6,-8 8,-15 2,-7 4,-14 8,-21 3,-7 7,-14 10,-20l-5 0c0,3 -3,9 -8,18 -5,8 -9,15 -13,20 -3,5 -3,11 0,18zm-51 150c10,0 15,-3 15,-10 -3,-4 -9,0 -15,10 -7,-10 -13,-14 -19,-13 -5,2 -16,10 -33,24 -7,-7 -15,-10 -23,-8 -9,2 -18,6 -29,13l16 -5 36 0c27,-7 45,-11 52,-11zm-290 -1710c-24,21 -33,19 -26,-5l0 -16c0,4 -1,12 -5,26 -7,-41 -10,-77 -10,-108 41,-83 95,-133 160,-150 65,-17 124,-14 176,10 51,24 93,57 124,98 3,55 -6,96 -29,122 -22,26 -35,63 -38,111 -4,3 -16,15 -37,36 -20,21 -32,41 -36,62 -3,0 -8,3 -15,8 -7,5 -13,10 -18,15 -6,5 -12,10 -18,13 -7,4 -13,4 -16,0 -31,28 -66,38 -106,31 -39,-7 -74,-27 -103,-59 -30,-33 -37,-63 -23,-91 6,4 10,12 10,26 0,14 2,23 5,26 10,-41 12,-67 5,-78 -7,-10 -7,-36 0,-77zm-20 26c0,45 -2,69 -6,72 -24,-48 -22,-72 6,-72zm-187 1157c7,-7 11,-15 11,-26l-11 26zm-25 -372c34,-14 51,-53 51,-119 -31,55 -48,95 -51,119zm-5 129c24,-7 37,-28 41,-64 3,-36 7,-58 10,-65 -7,0 -13,10 -18,29 -5,19 -13,31 -23,38 -4,-3 -5,-15 -5,-36l-11 0c-3,4 -5,7 -5,10l-5 11c3,10 12,19 26,26 3,10 2,19 -3,28 -5,9 -7,16 -7,23zm-21 450c31,-69 46,-135 46,-197 -31,93 -46,159 -46,197zm-5 139c-4,-20 -2,-62 5,-124 -24,31 -29,74 -16,129 -3,-3 -3,-5 0,-5l11 0zm-16 57l0 -26 -10 0c3,14 7,23 10,26zm-72 88c3,0 3,-5 0,-15l0 15zm0 -41c-4,-55 2,-128 15,-217 14,-90 23,-147 26,-171 52,-124 78,-220 78,-289 -7,0 -12,8 -16,23 -3,16 -10,23 -20,23 0,-13 3,-31 10,-54 7,-22 10,-40 10,-54 -96,279 -131,525 -103,739zm532 268l0 -5c-100,117 -158,179 -176,186 -44,14 -98,6 -160,-23 -62,-29 -105,-59 -129,-90 -55,-56 -92,-128 -111,-217 -19,-90 -18,-198 3,-323 20,-126 38,-227 54,-303 15,-75 44,-184 88,-325 43,-141 66,-217 69,-228 -3,-10 -1,-32 5,-67 69,-51 142,-67 218,-46 75,20 134,67 175,139 -7,69 -26,156 -57,261 -31,105 -63,201 -95,287 -33,86 -63,177 -91,271 -27,95 -41,167 -41,217 0,50 17,91 52,122 58,-66 115,-123 170,-171 55,-48 98,-88 129,-121 31,-33 66,-77 104,-132 62,-107 100,-157 113,-150 4,31 0,69 -10,114 3,3 3,8 0,15 -10,14 -17,35 -21,62l-10 6 -5 0c-4,-7 -4,-13 0,-19 3,-5 3,-11 0,-18 -14,4 -21,14 -21,31 4,7 9,14 16,21l15 10c0,4 -7,17 -20,39 -14,23 -27,46 -39,70 -12,24 -25,51 -39,80 -14,29 -24,52 -31,70l-15 15 -11 16 0 5c4,0 -5,15 -26,46 -20,31 -42,62 -64,93 -23,31 -32,47 -29,47 0,3 -3,9 -10,15z"/>
   <path class="fil1" d="M6955 5833c-3,4 -4,11 -2,21 2,10 6,17 13,21l0 -21c0,-7 -1,-12 -3,-16 -2,-3 -4,-5 -8,-5zm-5 -20c0,6 2,10 5,10 0,-4 -1,-7 -5,-10zm-15 -68c7,25 14,37 20,37 11,-18 4,-30 -20,-37zm-47 -1167l-5 0 0 5 5 0 0 -5zm-10 10c0,7 -2,14 -5,21 -4,7 -5,12 -5,15l20 0c11,-24 7,-36 -10,-36zm-16 57c0,3 -1,8 -5,13 -3,5 -3,11 0,18l16 0c-4,-4 -5,-10 -5,-18 0,-9 -2,-13 -6,-13zm6 165c24,-31 46,-95 67,-191 20,-96 32,-148 36,-155 -17,21 -35,63 -54,127 -19,63 -43,104 -70,121l36 0c0,14 -3,21 -10,21 -4,0 -8,-1 -13,-3 -5,-2 -10,-3 -13,-3 -7,7 -7,19 0,37 3,0 8,1 13,2 5,2 9,5 13,8 0,3 -2,9 -5,15 -4,7 -4,14 0,21zm-11 160c17,-75 23,-124 16,-144 -7,3 -11,11 -13,23 -2,12 1,21 8,28 -4,0 -6,3 -8,8 -2,5 -6,8 -13,8 -7,-14 -7,-32 0,-54 7,-23 8,-41 5,-55l-5 -5 -10 0c0,10 -1,24 -3,41 -2,18 -3,32 -3,44 0,12 2,25 6,39 3,14 8,24 15,31 0,7 -3,10 -10,10 -11,7 -16,13 -16,16 4,0 5,3 5,10 4,0 7,1 11,3 3,2 8,1 15,-3zm-57 -403c11,0 16,-1 16,-5 -10,-7 -16,-5 -16,5zm-129 145l5 -5 0 -11c-3,0 -6,2 -10,6 -10,7 -9,10 5,10zm-67 98c14,-14 31,-38 52,-72 -24,14 -42,38 -52,72zm0 0c-17,7 -29,10 -36,10 -10,28 -34,67 -70,117 -36,50 -61,90 -75,121 17,-17 78,-100 181,-248zm-201 284c13,0 20,-7 20,-20 -3,0 -6,-2 -8,-6 -1,-3 -4,-5 -7,-5 -4,7 -5,18 -5,31zm-104 171c45,-38 78,-93 98,-166 -13,11 -25,26 -36,44 -10,19 -21,42 -33,68 -12,25 -22,44 -29,54zm-15 31c3,-11 3,-16 0,-16 -11,11 -11,16 0,16zm-16 21l5 -6c4,-3 6,-7 6,-10 -4,-3 -7,-5 -11,-5 -3,3 -5,8 -5,13 0,5 2,8 5,8zm-15 25c7,4 11,1 13,-7 1,-9 -1,-13 -8,-13l-5 5 0 15zm-36 62c17,-3 25,-20 25,-51 -7,3 -12,12 -15,25 -4,14 -7,23 -10,26zm-6 -1064l0 10 -5 5 11 0c6,-10 5,-15 -6,-15zm-149 806c6,3 12,4 15,3 3,-2 3,-6 0,-13l-15 0 0 10zm108 -341c3,-14 11,-40 23,-78 12,-37 18,-70 18,-98 -3,0 -7,-1 -10,-5l0 -5c-3,7 -10,24 -21,52 0,3 3,7 8,10 5,3 8,7 8,10 -7,14 -17,21 -31,21 -69,234 -105,360 -109,377 7,4 11,2 11,-5l5 -10c7,-4 12,-5 15,-3 4,2 7,3 11,3 0,-4 1,-8 2,-13 2,-5 3,-11 3,-18 0,-4 -4,-6 -10,-8 -7,-2 -11,-4 -11,-8 0,-3 6,-7 18,-10 12,-4 17,-12 13,-26 -10,0 -15,-2 -15,-5 0,-4 1,-6 2,-8 2,-2 3,-4 3,-8 0,-3 5,-5 15,-5 0,-3 1,-8 3,-13 2,-5 3,-11 3,-18l-16 -15c0,-7 5,-11 16,-11 10,0 15,-1 15,-5 14,-21 16,-50 5,-88 4,-3 7,-5 11,-5 6,-3 12,-5 15,-5zm-119 325c7,-3 9,-10 5,-20l0 10c-3,4 -5,7 -5,10zm-10 37c10,0 15,-6 15,-16l-10 0c0,7 -2,12 -5,16zm10 -429c4,-11 14,-16 31,-16 -7,45 -15,74 -26,88 -3,0 -10,-5 -20,-15 0,-24 8,-37 26,-37l-11 -20zm-31 134c11,-21 21,-29 31,-26 0,18 -2,28 -5,31 -10,4 -19,2 -26,-5zm-20 47c24,-24 36,-26 36,-6l-26 16 -10 -10zm-42 279c4,0 7,1 11,5 0,3 1,7 5,10l-21 0 0 -10 5 -5zm11 -52c10,7 12,19 5,36l-21 0c0,-14 5,-26 16,-36zm-16 88l10 0 0 15c-3,0 -7,-1 -10,-5 -3,-3 -3,-7 0,-10zm-10 108l5 0 0 11 -5 0 0 -11zm5 -294c-10,41 -12,65 -5,72 20,-31 22,-55 5,-72zm-5 274c-4,-4 -5,-9 -5,-16 0,-7 0,-13 2,-18 2,-5 6,-8 13,-8 7,28 3,42 -10,42zm-11 87c-3,-6 -2,-12 3,-18 5,-5 8,-9 8,-13 3,4 4,11 2,21 -1,10 -6,14 -13,10zm21 -67c21,-131 65,-316 132,-555 67,-239 104,-375 111,-406 -21,38 -43,96 -67,173 -24,78 -43,130 -57,158 0,-3 -4,-7 -10,-10 -7,-4 -11,-9 -11,-16 28,-86 43,-139 47,-160 -52,86 -93,227 -124,424 3,0 8,-3 13,-8 5,-5 9,-6 13,-3 10,49 3,78 -21,88 -4,-7 -4,-21 0,-41 3,-21 0,-31 -10,-31 -11,21 -16,48 -16,82 3,-6 9,-10 16,-10 6,0 12,4 15,10l0 31c0,18 -2,33 -5,47 -4,14 -10,24 -21,31l-20 -16c-21,135 -30,211 -26,228 -38,124 -50,296 -36,517 13,6 20,1 20,-16 0,-3 -3,-7 -10,-10 -7,-4 -10,-7 -10,-11 6,-3 11,-13 12,-28 2,-16 6,-25 13,-28 -10,-4 -13,-14 -10,-31 3,-18 3,-33 0,-47 10,-3 17,-5 21,-5 -4,-10 -2,-28 5,-52l-5 0 0 -10c7,0 10,2 10,5 14,-38 9,-67 -15,-88 24,-24 39,-95 46,-212zm1312 -1152c73,90 100,167 83,233 -58,86 -120,279 -183,578 -64,300 -93,590 -88,871 5,281 64,426 178,437 48,41 50,72 5,93 -27,0 -55,3 -82,10 -111,-28 -199,-152 -266,-372 -68,-221 -104,-449 -109,-685 -5,-236 -1,-443 13,-622 0,-18 3,-43 10,-78 -10,14 -21,36 -33,67 -12,31 -28,61 -47,91 -19,29 -44,57 -75,85 -20,41 -61,103 -121,183 -60,81 -98,132 -111,153 -7,0 -11,3 -11,10l0 16 -10 0 0 -11 5 -5c-58,59 -113,155 -165,290 52,-66 140,-195 266,-388 126,-193 223,-331 292,-413 -21,34 -77,120 -168,258 -91,138 -159,245 -204,320 -45,76 -96,183 -152,321 -57,138 -98,270 -122,398 -14,20 -34,32 -59,36 -26,3 -49,-5 -70,-26 -7,0 -12,3 -16,10l-10 0c-10,-10 -25,-20 -44,-31 -19,-10 -32,-19 -39,-26 -3,0 -8,5 -15,13 -7,9 -14,13 -21,13 -34,-72 -53,-154 -57,-245 -3,-91 3,-196 18,-313 16,-117 24,-196 24,-237 55,-266 88,-409 98,-429 76,-286 160,-543 253,-770 17,-11 62,-16 134,-16 7,4 30,11 70,24 40,12 66,23 80,33 7,17 23,41 47,72 24,31 39,61 46,88 -17,38 -100,222 -248,553 -10,41 -36,120 -77,235 -42,116 -67,210 -78,282 62,-79 98,-140 109,-181 286,-482 503,-785 651,-909 48,-55 148,-61 299,-16z"/>
   <g>
    <path class="fil1" d="M8454 5141c7,0 10,-4 10,-11 0,-6 -2,-13 -5,-20 0,3 -2,8 -5,13 -4,5 -4,11 0,18zm-16 -445c4,-17 20,-56 49,-118 30,-62 44,-114 44,-155 -31,31 -63,86 -95,165 -33,79 -51,124 -55,134 4,-3 9,-8 16,-15 14,-14 28,-17 41,-11zm16 445c-7,7 -15,20 -23,41 -9,21 -17,35 -24,42 0,3 2,6 5,10 4,3 6,7 6,10 -62,90 -90,188 -83,295 0,-4 4,-9 13,-16 8,-7 13,-14 13,-20l-5 5c-4,3 -7,3 -11,0 4,-11 4,-21 0,-31 14,-7 23,-14 26,-21l-5 -5c-3,-4 -5,-9 -5,-16 20,-10 27,-31 20,-62 38,-72 62,-149 73,-232zm-129 527c-4,3 -5,9 -3,18 2,9 4,15 8,18l0 -21c0,-6 -2,-12 -5,-15zm-6 155c0,7 4,10 11,10l-11 -10zm-5 -109c4,4 5,9 5,16 4,-4 2,-9 -5,-16zm0 -832l0 6 5 -6 -5 0zm11 78l-16 36c21,-7 26,-19 16,-36zm-26 899c3,0 5,-3 5,-10 3,-7 5,-12 5,-16l-5 -5c-3,-3 -7,-5 -10,-5 0,17 1,29 5,36zm0 -46c7,-7 10,-16 10,-26 -3,0 -6,-4 -8,-11 -1,-6 -6,-12 -13,-15 0,21 4,38 11,52zm-21 -724l0 -5 5 -5c-10,-7 -8,-19 5,-36 14,-18 16,-31 6,-42 -4,11 -11,22 -21,34 -10,12 -16,23 -16,33l21 21zm-31 36c7,-3 14,-12 21,-26 -7,4 -14,13 -21,26zm-62 264c14,-11 25,-27 34,-49 8,-23 15,-48 20,-78 6,-29 10,-49 13,-59 -51,58 -69,108 -51,150 3,7 1,13 -6,18 -6,5 -10,11 -10,18zm0 -228c4,0 5,-1 5,-5l-5 5zm0 0c-10,11 -14,19 -10,26 7,0 10,-8 10,-26zm-5 460c0,-17 3,-47 10,-90 7,-43 9,-73 5,-90 0,3 -3,6 -10,10 -7,3 -10,7 -10,10 3,14 2,42 -3,85 -5,44 -2,68 8,75zm-36 -366c14,-4 24,-18 31,-42 -14,-34 -26,-31 -36,11 3,3 5,8 5,15l0 16zm-62 103c20,-11 29,-21 26,-31 -18,17 -26,27 -26,31zm20 -78c-17,7 -25,19 -25,36 10,-3 19,-15 25,-36zm-41 98c7,0 10,-3 10,-10 -6,0 -10,4 -10,10zm-21 -36l0 11 0 -11zm-5 62l21 -20c-4,-4 -8,-3 -13,2 -5,5 -8,11 -8,18zm-15 26c7,0 10,-5 10,-15 -14,0 -17,5 -10,15zm-93 181c17,0 53,-26 108,-77 31,-28 47,-25 47,10 3,-4 4,-11 2,-23 -1,-12 -2,-20 -2,-24 3,-7 12,-18 26,-33 13,-16 22,-28 25,-36 4,-9 9,-24 16,-44 7,-21 7,-38 0,-52 -83,114 -157,207 -222,279zm-259 -977c21,-10 28,-22 21,-36 -14,4 -21,16 -21,36zm0 0c-3,4 -7,10 -12,19 -6,8 -13,12 -24,12 7,14 11,25 11,31 6,-6 12,-18 15,-33 3,-16 7,-25 10,-29zm-36 83c-27,52 -53,122 -77,212 55,-93 81,-164 77,-212zm-77 217l0 -5 -5 0c0,3 1,5 5,5zm-36 93c6,-14 13,-21 20,-21 0,-3 -3,-8 -10,-15 0,3 -3,9 -8,18 -5,9 -6,15 -2,18zm-16 62c7,-10 9,-21 5,-31l0 5c-7,11 -8,19 -5,26zm-10 31c7,-3 8,-10 5,-21 -4,4 -5,11 -5,21zm-31 93c13,-3 20,-21 20,-52 -3,-3 -8,-1 -15,6 0,17 -5,25 -16,25 0,4 2,7 6,8 3,2 5,6 5,13zm-21 103l-5 0 0 6 5 0 0 -6zm-10 47c10,-7 13,-14 10,-21 -3,0 -5,-1 -5,-5 -7,7 -9,16 -5,26zm1390 -915c0,31 -11,68 -31,109 -21,41 -33,76 -36,103 -11,24 -39,91 -86,199 -46,109 -77,184 -93,225 -15,41 -40,110 -75,207 -34,96 -57,176 -67,240 -10,64 -21,141 -31,232 -10,92 -12,180 -5,267 17,72 26,113 26,124 0,6 2,18 5,33 3,16 2,26 -5,31 -7,5 -24,8 -52,8 -134,-14 -212,-231 -232,-651 -4,-31 -6,-55 -6,-72 -27,27 -44,41 -51,41 -35,52 -66,94 -93,126 -28,33 -70,63 -127,91 -57,27 -120,39 -188,36 -7,-7 -18,-16 -34,-28 -15,-12 -30,-23 -44,-31 -14,-9 -29,-13 -46,-13 -76,-59 -124,-138 -142,-238 -19,-100 -22,-185 -8,-256 13,-70 42,-171 85,-302 43,-131 68,-210 75,-238l15 -41c24,-28 49,-79 73,-155 24,-76 54,-136 90,-181 36,-45 94,-65 173,-62 4,4 13,11 29,23 15,13 26,18 31,18l44 0c31,31 53,83 67,155 -7,11 -26,48 -57,112 -31,63 -51,104 -59,121 -9,17 -26,54 -52,111 -26,57 -44,98 -54,124 -11,26 -26,65 -47,116 -21,52 -35,96 -44,132 -8,36 -20,78 -33,127 -14,48 -25,96 -31,144 -7,49 -13,97 -16,145 76,-31 141,-73 196,-127 55,-53 115,-121 179,-204 63,-82 111,-141 142,-175 76,-204 181,-462 315,-775 7,0 24,-11 52,-31 38,-4 74,-4 108,0 4,3 5,15 5,36 14,0 31,3 52,10 21,7 36,10 47,10 6,14 12,35 18,62 5,28 11,49 18,62z"/>
   </g>
   <path class="fil1" d="M9921 4691c11,-24 14,-38 11,-41 -11,24 -14,38 -11,41zm-36 83c17,-17 21,-31 10,-41 0,3 -1,10 -5,20 -3,11 -5,18 -5,21zm-52 155c21,-52 30,-81 26,-88 0,10 -5,25 -15,44 -11,19 -14,34 -11,44zm-26 -93c-20,41 -32,76 -36,103 35,-13 47,-48 36,-103zm-46 367c38,-121 60,-210 67,-269 -3,7 -15,44 -33,111 -19,67 -31,120 -34,158zm-15 -114l-11 0c0,4 2,7 5,10l0 -5c0,-3 2,-5 6,-5zm-21 290c10,-18 18,-47 23,-88 5,-42 10,-67 13,-78l-5 -5c-24,86 -35,143 -31,171zm-16 93c0,-4 1,-8 3,-13 2,-6 3,-10 3,-13 -7,0 -11,3 -11,10 0,7 2,12 5,16zm-15 56c10,-7 14,-13 10,-20 -3,0 -7,1 -10,5l-5 5c0,3 1,7 5,10zm41 -408c-10,14 -19,39 -26,75 -7,36 -13,61 -20,75l5 5 5 5c3,-10 16,-63 36,-160zm-51 259c0,-18 -2,-26 -6,-26 -3,3 -4,8 -2,15 1,7 4,11 8,11zm-52 -321c17,-27 24,-45 21,-52l-11 21c-7,10 -10,21 -10,31zm-16 26c7,0 11,-5 11,-16l-16 11 5 5zm-31 -103c0,-4 2,-7 5,-11l-5 5c-3,0 -3,2 0,6zm11 149c-28,18 -49,56 -62,114 38,-65 58,-103 62,-114zm31 42c3,0 7,2 10,5 3,3 7,3 10,0 18,-31 40,-105 68,-222 -87,144 -135,258 -145,341 -31,24 -67,100 -109,227 21,-27 41,-58 60,-93 19,-34 38,-73 59,-116 21,-43 38,-77 52,-101 -4,-3 -7,-7 -10,-10l-6 -5c4,-4 6,-9 6,-16l5 -10zm-176 227c7,-7 34,-53 83,-139 -7,7 -35,53 -83,139zm-10 26c7,-3 8,-10 5,-21 -7,7 -9,14 -5,21zm5 129c10,-7 10,-12 0,-15 -7,-4 -12,-4 -16,0 -3,3 -2,7 3,13 5,5 9,6 13,2zm-47 62c21,-14 31,-27 31,-41 -20,3 -31,17 -31,41zm-129 5c97,-120 215,-336 357,-646 -31,18 -59,45 -83,83 0,4 2,7 5,10 7,11 7,18 0,21 -3,0 -5,-2 -5,-5 0,-3 -1,-6 -3,-8 -1,-1 -4,-2 -7,-2 -11,38 -18,58 -21,62 7,10 -5,39 -36,88 10,27 -5,53 -47,77 -10,45 -37,103 -80,173 -43,71 -70,120 -80,147zm-15 37c6,-7 10,-13 10,-16 -7,0 -12,2 -16,5 0,4 2,7 6,11zm-57 -1117l5 -10c7,-3 9,-7 5,-10 -10,10 -14,17 -10,20zm-88 176c-7,0 -10,5 -10,16 6,0 10,-6 10,-16zm15 -274c-13,7 -29,28 -46,62 24,-24 40,-44 46,-62zm429 507c-3,3 -5,7 -5,10 38,-59 64,-129 78,-212 38,-131 44,-296 20,-496 -7,-7 -12,-7 -15,0 -293,289 -491,734 -594,1333l0 80c0,43 3,77 10,101 55,-52 108,-114 158,-186 49,-72 89,-135 118,-189 30,-53 68,-127 117,-222 48,-94 84,-164 108,-209 0,-3 2,-7 5,-10zm-532 -310c-3,0 -5,1 -5,5l5 -5zm-21 36c-13,20 -22,36 -25,46 6,0 13,-6 20,-18 7,-12 9,-21 5,-28zm-201 718c100,-417 281,-818 542,-1204 -62,62 -118,137 -170,225 -52,88 -92,164 -121,227 -30,64 -69,153 -117,266 -48,114 -82,197 -103,248 3,24 -1,65 -13,122 -12,57 -18,95 -18,116zm1307 -1116c55,24 98,59 129,106 31,46 33,95 6,147 -197,338 -316,813 -357,1426 7,7 26,64 57,171 -90,17 -160,-11 -212,-83l-10 5c-4,4 -7,4 -11,0 -24,-24 -44,-51 -59,-80 -16,-29 -28,-58 -39,-85 -10,-28 -16,-61 -18,-101 -2,-39 -3,-70 -5,-93 -2,-22 0,-56 5,-101 5,-44 10,-76 13,-95 3,-19 9,-51 18,-96 9,-45 13,-72 13,-83 -7,0 -12,6 -15,16 -4,10 -4,19 0,26 -14,17 -62,105 -143,263 -81,159 -159,271 -235,336 -148,42 -249,21 -305,-62l-25 0c-49,-41 -99,-119 -150,-232 -28,-307 58,-662 258,-1065 3,4 3,9 0,16 -3,7 -3,12 0,15 31,-31 48,-63 52,-98 -11,7 -20,19 -29,36 -8,18 -16,28 -23,31 7,-17 34,-75 83,-175 48,-100 85,-169 111,-207 26,-38 72,-79 139,-124 68,-45 144,-67 230,-67 93,10 172,49 235,116 64,67 87,152 70,256 38,-117 110,-157 217,-119z"/>
   <path class="fil1" d="M11522 2840c0,-4 2,-7 6,-9 4,-2 6,-5 6,-9 -8,0 -12,6 -12,18zm-48 85c8,-4 18,-16 30,-36 -12,0 -22,12 -30,36zm-36 163c0,-4 2,-6 6,-6l-6 0 -6 -6c0,4 -1,6 -3,6 -2,0 -3,2 -3,6l12 0zm-24 -580c-8,0 -11,-5 -6,-15 3,-10 10,-13 18,-9 0,8 -4,16 -12,24zm-12 24c-37,125 -67,202 -91,230 -4,-16 -2,-38 6,-64 8,-26 21,-58 39,-97 18,-38 29,-61 33,-69l13 0zm-139 393c-9,-16 -12,-29 -9,-39 2,-10 8,-29 18,-55 10,-26 17,-43 21,-51 4,16 5,30 3,42 -2,12 -8,31 -18,57 -10,27 -15,42 -15,46zm-25 652c8,-20 10,-30 6,-30 0,20 -2,30 -6,30zm-24 -562c8,21 -16,93 -72,218 -4,-16 -1,-37 9,-63 10,-27 22,-56 36,-88 14,-32 23,-54 27,-67zm-102 321c-17,-4 -17,-24 0,-61 7,-12 12,-20 12,-24l12 0c4,12 1,27 -9,45 -11,19 -15,32 -15,40zm-61 193c-8,4 -12,2 -12,-6 0,-12 2,-20 6,-24 8,-4 12,-2 12,6 0,12 -2,20 -6,24zm-242 1045c4,-16 12,-40 25,-72 12,-32 20,-59 24,-82 4,-22 4,-41 0,-57 -4,8 -14,32 -30,72 -17,41 -24,65 -22,73 2,8 3,30 3,66zm-199 556c0,-4 2,-6 6,-6 -8,-8 -12,-16 -12,-24 -12,16 -10,26 6,30zm1275 -3686c88,-52 183,-65 284,-39 101,26 161,80 181,160 -24,57 -149,323 -374,798 -226,475 -393,844 -502,1106 -8,8 -16,8 -24,0 -4,4 -3,10 3,18 6,8 7,16 3,24 0,4 -3,10 -9,18 -6,8 -14,19 -24,33 -10,14 -20,30 -27,46l6 0c-5,4 -6,12 -6,24 -9,0 -13,-2 -13,-6 -274,479 -404,751 -392,815 -29,33 -59,95 -91,188 -32,93 -69,155 -109,187 0,-4 4,-11 12,-21 8,-10 10,-19 6,-27 -36,44 -66,93 -90,145 -28,93 -49,149 -61,169l-18 54c-4,4 -11,8 -21,10 -10,1 -17,7 -21,15 -4,56 -24,131 -61,223 -16,4 -29,15 -39,33 -10,18 -17,30 -21,34 12,-105 52,-271 121,-499 68,-227 109,-376 121,-444 0,-8 4,-12 12,-12 8,0 12,-4 12,-12 32,-133 92,-324 181,-574 8,-81 30,-145 67,-194l0 6 12 -18 -12 0c-12,-28 -6,-50 18,-66l6 0 6 6 0 12c60,-157 129,-330 205,-520 77,-189 152,-373 227,-553 74,-179 124,-301 148,-365 -4,0 -10,-4 -18,-12 -8,-8 -14,-10 -18,-6 -24,92 -65,163 -121,211 16,-44 43,-128 81,-251 39,-122 70,-217 94,-284 24,-66 60,-142 109,-226 48,-85 101,-153 157,-206zm-1746 4520c217,-181 366,-197 447,-48 60,117 56,260 -12,429 -65,157 -159,238 -284,242 -33,0 -72,-21 -118,-64 -46,-42 -82,-110 -106,-202 -24,-93 0,-212 73,-357z"/>
  </g>
 </g>
</svg>
